<?xml version="1.0" encoding="utf-8"?>
<!-- Generator: Adobe Illustrator 24.0.1, SVG Export Plug-In . SVG Version: 6.00 Build 0)  -->
<svg version="1.1" id="Layer_1" xmlns="http://www.w3.org/2000/svg" xmlns:xlink="http://www.w3.org/1999/xlink" x="0px" y="0px"
	 viewBox="0 0 355.7 355.7" style="enable-background:new 0 0 355.7 355.7;" xml:space="preserve">
<style type="text/css">
	.st0{fill:#FFFFFF;}
	.st1{fill:#172144;}
	.st2{fill:#A0CC3A;}
	.st3{fill:#F8F9FF;}
	.st4{fill:#0B181D;}
	.st5{fill:#0D142B;}
	.st6{fill:#A1CC3A;}
	.st7{fill:#61CBEE;}
	.st8{fill:#07071C;}
	.st9{fill:#EA1D22;}
	.st10{fill:#0B1123;}
	.st11{fill:#FCFCFC;}
	.st12{fill:#E49446;}
	.st13{fill:#0F1923;}
	.st14{fill:#FF4655;}
	.st15{fill:#13233C;}
	.st16{fill:#1D1B1B;}
	.st17{fill:#EC4D37;}
	.st18{fill:url(#SVGID_1_);}
	.st19{fill:url(#SVGID_2_);}
	.st20{fill:url(#SVGID_3_);}
	.st21{fill:url(#SVGID_4_);}
	.st22{fill:url(#SVGID_5_);}
	.st23{fill:url(#SVGID_6_);}
</style>
<rect x="6839.9" y="-4272.7" class="st0" width="3188.9" height="1586"/>
<g>
	<text transform="matrix(1 0 0 1 8199.9746 -3277.0574)"><tspan x="0" y="0" style="fill:#162144; font-family:'Campton-Medium'; font-size:118.1645px;">Bi</tspan><tspan x="113.6" y="0" style="fill:#162144; font-family:'Campton-Medium'; font-size:118.1645px; letter-spacing:6;">t</tspan><tspan x="172" y="0" class="st6" style="font-family:'Campton-Bold'; font-size:118.1645px; letter-spacing:6;">F</tspan><tspan x="247.2" y="0" class="st6" style="font-family:'Campton-Bold'; font-size:118.1645px;">orm</tspan></text>
	<g>
		<path class="st1" d="M8344.9-3664.4c0,1.3,0,2.3,0,3.3c0,46.5,0,93,0,139.5c0,2,0.6,3.1,2.4,4.1c28.4,15.8,56.8,31.6,85.1,47.5
			c1.4,0.8,2.3,0.8,3.7,0c22.8-12.8,45.7-25.5,68.5-38.2c0.9-0.5,1.9-0.8,2.7-1.9c-4.4-2.4-8.7-4.9-13-7.3
			c-19.2-10.7-38.4-21.4-57.6-32.2c-1.9-1.1-3.2-0.9-5,0.1c-10.7,6.1-21.6,12.1-32.3,18.1c-1,0.5-1.8,1-3,0.3
			c-11.2-6.4-22.5-12.6-33.8-18.9c-0.4-0.2-0.8-0.5-1.3-0.9c7.6-4.2,15-8.4,22.4-12.5c16.2-9,32.4-18.1,48.5-27.1
			c1.3-0.8,2.4-1,3.9-0.1c40.3,22.6,80.7,45.1,121.1,67.5c1.5,0.9,2.3,1.7,2.2,3.6c-0.2,6.2-0.2,12.4,0,18.5
			c0.1,2.4-0.8,3.6-2.8,4.8c-38.6,21.5-77.3,42.9-115.8,64.7c-4.9,2.8-8.3,2.7-13.1,0c-26.9-15.4-54-30.3-81-45.4
			c-11.6-6.5-23.2-13-34.9-19.5c-1.8-1-2.5-1.9-2.5-4c0.1-44.4,0.1-88.8,0.1-133.2c0-3.1,0-6.3,0-9.4c0-1,0.2-1.8,1.2-2.3"/>
		<polyline class="st2" points="8425.1,-3698.5 8425.1,-3624 8443.5,-3616.6 8443.5,-3698.5 		"/>
		<path class="st2" d="M8559.4-3642.3c0-1.4-0.3-2.3-1.6-3c-40.4-22.5-80.9-45-121.2-67.6c-1.7-1-3-0.8-4.6,0.1
			c-22.4,12.5-44.8,25.1-67.2,37.5c-1.4,0.8-1.8,1.6-1.8,3.2c0,32.5,0,65,0,97.5c0,2.6,0,2.7,2.3,1.4c22.3-12.5,44.7-25,66.9-37.5
			c1.7-0.9,2.8-0.8,4.3,0.1c40.2,22.5,80.4,44.9,120.5,67.4c2.3,1.3,2.3,1.3,2.3-1.4c0-16.2,0-32.4,0-48.6
			C8559.4-3609.7,8559.4-3626,8559.4-3642.3z M8541.6-3584.1L8541.6-3584.1c-0.1,3.1-0.1,6.3,0,9.5c0,1.9-0.5,2-2,1.1
			c-18.9-10.6-37.9-21.2-56.9-31.8c-15.5-8.7-31.1-17.3-46.6-26c-1.4-0.8-2.4-0.6-3.7,0.1c-16.4,9.2-32.7,18.3-49.1,27.5
			c-2.5,1.4-2.5,1.4-2.5-1.6c0-2.6,0-5.1,0-7.7c0-1.9,0.1-3.9,0-5.8l-0.1,0v-40.2h0c0-1,0-2,0-3c0-1.3,0.4-2,1.5-2.6
			c16.9-9.4,33.8-18.8,50.6-28.3c1.3-0.7,2.2-0.4,3.3,0.2c17.2,9.6,34.3,19.1,51.5,28.7c17.2,9.6,34.3,19.2,51.5,28.7
			c1.9,1,2.6,2.2,2.4,4.3c-0.1,1.7-0.1,3.4-0.1,5.1h0.1V-3584.1z"/>
	</g>
</g>
<rect x="6835.2" y="-823.7" class="st0" width="3188.9" height="1586"/>
<rect x="-233.3" y="471.3" class="st0" width="3188.9" height="1586"/>
<rect x="1202.7" y="616.7" class="st3" width="1464.5" height="1124.4"/>
<rect x="3401.8" y="1890" class="st0" width="3188.9" height="1586"/>
<rect x="6842.1" y="2656.3" class="st4" width="3188.9" height="1586"/>
<g>
	<path class="st5" d="M8537.5-31.1l-74.7,42.6c-21.1,12-47,11.9-67.9-0.4l-74.2-43.4c-21-12.2-33.8-34.7-33.6-59l0.5-85.9
		c0.1-24.3,13.2-46.6,34.3-58.6l74.7-42.6c21.1-12,47-11.9,67.9,0.4l74.2,43.4c21,12.2,33.8,34.7,33.6,59l-0.5,85.9
		C8571.7-65.5,8558.6-43.2,8537.5-31.1z"/>
	<path class="st6" d="M8431.1-43.6c4.5,0.1,9.1,0.1,13.5,0l1.3,0c8-0.1,15.7-1.9,23-5.4c15.4-7.4,26.3-20.3,30.7-36.4
		c4.3-15.8,1.6-32.7-7.4-46.4c-1.1-1.7-1.1-3.2,0.1-5c5.5-8.1,8.6-17.3,9.2-27.3c1-15.7-3.8-29.7-14.3-41.6
		c-8.8-10-20-16.2-33.2-18.4c-6.1-1-12.3-0.9-18.4-0.8c-2.2,0-4.5,0.1-6.8,0.1c-0.1,0-0.2,0-0.3,0c-2.4,0-4.4,0.2-6.2,0.6
		c-16.4,3.9-26.8,14.1-30.9,30.2c-0.4,1.6-1.2,2.3-2.6,2.6c-6.5,1.3-12.4,4.3-17.5,8.9c-8.8,8-13.3,18.2-13.3,30.2
		c0,23.2,0,46.7,0,69.5l0,15.4c0,1.6,0.1,3.1,0.3,4.5c1.1,6.8,5.2,12.8,11.4,16.3c6.2,3.5,13.3,4.1,19.7,1.6c9.4-3.7,15-12,15-22.3
		c0-12.4,0-25,0-37.2c0-5.3,0-10.7,0-16l0-10.9c0-14.5,0-29.5,0-44.3c0-0.7,0.1-1.5,0.6-2c0.6-0.6,1.3-0.6,2-0.6
		c7.1,0,14.4,0,21.4,0c2.8,0,5.6,0,8.3,0c0.7,0,1.4,0,2.2,0c2.1,0,4.2,0,6.4,0.1c3.4,0.1,6.1,1.7,7.9,4.4c2.2,3.4,2.4,7.2,0.6,10.8
		c-1.8,3.5-4.9,5.3-9.1,5.5c-1.8,0-3.7,0-5.5,0c-3.1,0-6.4-0.1-9.5,0.3c-6.1,0.6-11.8,3.9-15.7,8.9c-3.9,5-5.6,11.3-4.7,17.4
		c1.7,11.4,11.2,19.8,22.7,20c2.4,0,4.8,0,7.1,0c1.6,0,3.3,0,5,0c4.3,0,7.4,1.7,9.4,5c2,3.4,2.1,7.3,0.3,10.5
		c-1.8,3.2-5.2,5.2-9.2,5.3c-2.2,0-4.5,0-6.7,0c-1.6,0-3.3,0-5,0c-7.4,0.1-14,3-18.4,8.4c-4.4,5.2-6.2,12-5.1,19.1
		C8411-52.4,8420.7-43.8,8431.1-43.6z M8390.1-152l0,31.7l0,12.1c0,13.5,0,26.9,0,40.4c0,2.4-0.3,4.9-2.2,7
		c-1.9,2.1-4.1,3.2-6.7,3.2c-1,0-2-0.2-3.1-0.5c-3.4-1-5.9-4.2-6.2-7.9c-0.1-0.8-0.1-1.6-0.1-2.4c0-8.4,0-16.7,0-25.1
		c0-19,0-38.7,0-58.1c0-8.5,2.8-15.1,8.7-20.4c1.8-1.6,3.9-2.9,6.7-4.2c0.4-0.2,1.3-0.6,2.1-0.1c0.8,0.5,0.8,1.5,0.8,2.1
		C8390.1-166.9,8390.1-159.3,8390.1-152z M8444.1-192.5c-3.9,0-7.8,0-11.6,0c-1.8,0-3.6,0-5.3,0l-7.2,0c-3.8,0-7.6,0-11.4,0
		c-1,0-2,0-2.4-0.8c-0.5-0.8,0-1.7,0.4-2.5c4.6-9.2,11.8-14.2,21.3-14.8c6.9-0.4,15.1-0.7,23.4,0.4c15.9,2.2,30.4,15.2,34.5,30.9
		c2.7,10.4,1.7,20.5-2.8,30.3c-0.9,2-1.4,3-2.4,3.2c-0.2,0-0.3,0.1-0.5,0.1c-0.8,0-1.7-0.6-3.2-1.6l-0.1,0c-3.2-2.1-6.4-3.9-9.5-5.3
		c-0.7-0.3-1.4-0.7-1.6-1.4c-0.3-0.8,0-1.5,0.4-2.1c4.2-7.9,4-16.9-0.4-24.3C8461.2-187.9,8453.2-192.4,8444.1-192.5z M8448.6-125.3
		c-2.1,0.2-4.2,0.3-6,0.3c-0.6,0-1.1,0-1.7,0c-1,0-1.9,0-2.8,0c-2,0-3.8,0-5.7,0c-4-0.1-6.9-1.9-8.4-5.3c-1.5-3.4-1.1-6.7,1.3-9.6
		c1.7-2.1,3.8-3.2,6.2-3.2c1.7,0,3.5,0,5.2-0.1c5.6-0.1,11.5-0.3,17.2,1c5.4,1.2,10.4,3.4,15,6.5c0.3,0.2,1.1,0.7,1.1,1.6
		c0,0.8-0.7,1.3-1.1,1.6C8462.7-128.5,8455.9-126,8448.6-125.3z M8424.6-71.7c1.7-2.8,4.4-4.2,8-4.2c1.4,0,2.8,0,4.2,0
		c2.4,0,4.9,0,7.4,0c10.5-0.3,18.1-5,22.5-14.1c3.5-7.1,3.4-14.4-0.3-21.6c-0.2-0.3-0.3-0.6-0.4-0.8c-0.4-0.7-0.7-1.3-0.5-1.9
		c0.2-0.7,0.8-1,2-1.5l0.4-0.2c3.7-1.7,7.2-3.7,10.2-6c0.7-0.5,1.4-1,2.3-0.8c0.8,0.2,1.3,0.9,1.7,1.6c3.7,6.8,5.5,14.1,5.3,21.7
		c-0.3,11.3-4.4,21.1-12.2,29c-7.3,7.4-16.2,11.7-26.6,12.6c-2.2,0.2-4.2,0.3-5.9,0.3c-0.6,0-1.1,0-1.7,0c-1,0-2,0-2.9,0
		c-1.9,0-3.8,0-5.6,0c-3.6-0.1-6.8-2-8.3-5C8422.6-65.4,8422.8-68.8,8424.6-71.7z"/>
	<text transform="matrix(1 0 0 1 8162.9609 157.351)"><tspan x="0" y="0" class="st5" style="font-family:'BalooBhai2-Medium'; font-size:135.8286px; letter-spacing:7;">Bit</tspan><tspan x="189.3" y="0" class="st6" style="font-family:'BalooBhai2-Bold'; font-size:135.8286px; letter-spacing:7;">Form</tspan></text>
</g>
<rect x="6835.2" y="-2563.9" class="st0" width="3188.9" height="1586"/>
<g>
	<path class="st5" d="M8537.5-1771.4l-74.7,42.6c-21.1,12-47,11.9-67.9-0.4l-74.2-43.4c-21-12.2-33.8-34.7-33.6-59l0.5-85.9
		c0.1-24.3,13.2-46.6,34.3-58.6l74.7-42.6c21.1-12,47-11.9,67.9,0.4l74.2,43.4c21,12.2,33.8,34.7,33.6,59l-0.5,85.9
		C8571.7-1805.8,8558.6-1783.4,8537.5-1771.4z"/>
	<path class="st7" d="M8431.1-1783.9c4.5,0.1,9.1,0.1,13.5,0l1.3,0c8-0.1,15.7-1.9,23-5.4c15.4-7.4,26.3-20.3,30.7-36.4
		c4.3-15.8,1.6-32.7-7.4-46.4c-1.1-1.7-1.1-3.2,0.1-5c5.5-8.1,8.6-17.3,9.2-27.3c1-15.7-3.8-29.7-14.3-41.6
		c-8.8-10-20-16.2-33.2-18.4c-6.1-1-12.3-0.9-18.4-0.8c-2.2,0-4.5,0.1-6.8,0.1c-0.1,0-0.2,0-0.3,0c-2.4,0-4.4,0.2-6.2,0.6
		c-16.4,3.9-26.8,14.1-30.9,30.2c-0.4,1.6-1.2,2.3-2.6,2.6c-6.5,1.3-12.4,4.3-17.5,8.9c-8.8,8-13.3,18.2-13.3,30.2
		c0,23.2,0,46.7,0,69.5l0,15.4c0,1.6,0.1,3.1,0.3,4.5c1.1,6.8,5.2,12.8,11.4,16.3c6.2,3.5,13.3,4.1,19.7,1.6c9.4-3.7,15-12,15-22.3
		c0-12.4,0-25,0-37.2c0-5.3,0-10.7,0-16l0-10.9c0-14.5,0-29.5,0-44.3c0-0.7,0.1-1.5,0.6-2c0.6-0.6,1.3-0.6,2-0.6
		c7.1,0,14.4,0,21.4,0c2.8,0,5.6,0,8.3,0c0.7,0,1.4,0,2.2,0c2.1,0,4.2,0,6.4,0.1c3.4,0.1,6.1,1.7,7.9,4.4c2.2,3.4,2.4,7.2,0.6,10.8
		c-1.8,3.5-4.9,5.3-9.1,5.5c-1.8,0-3.7,0-5.5,0c-3.1,0-6.4-0.1-9.5,0.3c-6.1,0.6-11.8,3.9-15.7,8.9c-3.9,5-5.6,11.3-4.7,17.4
		c1.7,11.4,11.2,19.8,22.7,20c2.4,0,4.8,0,7.1,0c1.6,0,3.3,0,5,0c4.3,0,7.4,1.7,9.4,5c2,3.4,2.1,7.3,0.3,10.5
		c-1.8,3.2-5.2,5.2-9.2,5.3c-2.2,0-4.5,0-6.7,0c-1.6,0-3.3,0-5,0c-7.4,0.1-14,3-18.4,8.4c-4.4,5.2-6.2,12-5.1,19.1
		C8411-1792.6,8420.7-1784.1,8431.1-1783.9z M8390.1-1892.3l0,31.7l0,12.1c0,13.5,0,26.9,0,40.4c0,2.4-0.3,4.9-2.2,7
		c-1.9,2.1-4.1,3.2-6.7,3.2c-1,0-2-0.2-3.1-0.5c-3.4-1-5.9-4.2-6.2-7.9c-0.1-0.8-0.1-1.6-0.1-2.4c0-8.4,0-16.7,0-25.1
		c0-19,0-38.7,0-58.1c0-8.5,2.8-15.1,8.7-20.4c1.8-1.6,3.9-2.9,6.7-4.2c0.4-0.2,1.3-0.6,2.1-0.1c0.8,0.5,0.8,1.5,0.8,2.1
		C8390.1-1907.1,8390.1-1899.6,8390.1-1892.3z M8444.1-1932.7c-3.9,0-7.8,0-11.6,0c-1.8,0-3.6,0-5.3,0l-7.2,0c-3.8,0-7.6,0-11.4,0
		c-1,0-2,0-2.4-0.8c-0.5-0.8,0-1.7,0.4-2.5c4.6-9.2,11.8-14.2,21.3-14.8c6.9-0.4,15.1-0.7,23.4,0.4c15.9,2.2,30.4,15.2,34.5,30.9
		c2.7,10.4,1.7,20.5-2.8,30.3c-0.9,2-1.4,3-2.4,3.2c-0.2,0-0.3,0.1-0.5,0.1c-0.8,0-1.7-0.6-3.2-1.6l-0.1,0c-3.2-2.1-6.4-3.9-9.5-5.3
		c-0.7-0.3-1.4-0.7-1.6-1.4c-0.3-0.8,0-1.5,0.4-2.1c4.2-7.9,4-16.9-0.4-24.3C8461.2-1928.1,8453.2-1932.6,8444.1-1932.7z
		 M8448.6-1865.6c-2.1,0.2-4.2,0.3-6,0.3c-0.6,0-1.1,0-1.7,0c-1,0-1.9,0-2.8,0c-2,0-3.8,0-5.7,0c-4-0.1-6.9-1.9-8.4-5.3
		c-1.5-3.4-1.1-6.7,1.3-9.6c1.7-2.1,3.8-3.2,6.2-3.2c1.7,0,3.5,0,5.2-0.1c5.6-0.1,11.5-0.3,17.2,1c5.4,1.2,10.4,3.4,15,6.5
		c0.3,0.2,1.1,0.7,1.1,1.6c0,0.8-0.7,1.3-1.1,1.6C8462.7-1868.7,8455.9-1866.2,8448.6-1865.6z M8424.6-1811.9c1.7-2.8,4.4-4.2,8-4.2
		c1.4,0,2.8,0,4.2,0c2.4,0,4.9,0,7.4,0c10.5-0.3,18.1-5,22.5-14.1c3.5-7.1,3.4-14.4-0.3-21.6c-0.2-0.3-0.3-0.6-0.4-0.8
		c-0.4-0.7-0.7-1.3-0.5-1.9c0.2-0.7,0.8-1,2-1.5l0.4-0.2c3.7-1.7,7.2-3.7,10.2-6c0.7-0.5,1.4-1,2.3-0.8c0.8,0.2,1.3,0.9,1.7,1.6
		c3.7,6.8,5.5,14.1,5.3,21.7c-0.3,11.3-4.4,21.1-12.2,29c-7.3,7.4-16.2,11.7-26.6,12.6c-2.2,0.2-4.2,0.3-5.9,0.3c-0.6,0-1.1,0-1.7,0
		c-1,0-2,0-2.9,0c-1.9,0-3.8,0-5.6,0c-3.6-0.1-6.8-2-8.3-5C8422.6-1805.7,8422.8-1809.1,8424.6-1811.9z"/>
	<text transform="matrix(1 0 0 1 8162.9609 -1582.9045)"><tspan x="0" y="0" class="st5" style="font-family:'BalooBhai2-Medium'; font-size:135.8286px; letter-spacing:7;">Bit</tspan><tspan x="189.3" y="0" style="fill:#43B3E6; font-family:'BalooBhai2-Bold'; font-size:135.8286px; letter-spacing:7;">Form</tspan></text>
</g>
<rect x="6841.4" y="965.9" class="st0" width="1592.8" height="792.2"/>
<g>
	<g>
		<g>
			<rect x="7551.2" y="1239.3" width="77.1" height="12.6"/>
			<g>
				<rect x="7593.1" y="1276.8" width="86.2" height="12.6"/>
				<polygon points="7551,1239.3 7551,1251.9 7593.1,1289.4 7593.1,1276.8 				"/>
			</g>
			<g>
				<path d="M7674,1314.7L7674,1314.7c0-3.5-2.8-6.3-6.3-6.3h-74.6v12.6h74.6C7671.2,1321,7674,1318.1,7674,1314.7z"/>
				<polygon points="7551,1283.5 7593.1,1321 7593.1,1308.3 7551,1270.9 				"/>
			</g>
			<g>
				<polygon points="7551,1315.1 7593.1,1352.5 7593.1,1339.9 7551,1302.5 				"/>
				<rect x="7593.1" y="1339.9" width="86.2" height="12.6"/>
			</g>
			<g>
				<path d="M7679.3,1276.8C7679.3,1276.8,7679.3,1276.8,7679.3,1276.8l0,12.6c0,0,0,0,0,0c13.9,0,25.3,11.3,25.3,25.3
					s-11.3,25.3-25.3,25.3c0,0,0,0,0,0v12.6c0,0,0,0,0,0c20.9,0,37.9-17,37.9-37.9S7700.2,1276.8,7679.3,1276.8z"/>
			</g>
			<g>
				<path d="M7653.5,1277.2c0,2-0.2,4-0.7,5.8h12.8c0.3-1.9,0.4-3.9,0.4-5.8c0-20.9-17-37.9-37.9-37.9c0,0,0,0,0,0v12.6c0,0,0,0,0,0
					C7642.2,1251.9,7653.5,1263.3,7653.5,1277.2z"/>
			</g>
		</g>
		<text transform="matrix(1 0 0 1 7468.2393 1463.0785)"><tspan x="0" y="0" style="font-family:'Campton-Book'; font-size:86.2609px;">Bi</tspan><tspan x="82.4" y="0" style="font-family:'Campton-Book'; font-size:86.2609px; letter-spacing:5;">t</tspan><tspan x="124.9" y="0" style="font-family:'Campton-SemiBold'; font-size:86.2609px; letter-spacing:5;">F</tspan><tspan x="180.5" y="0" style="font-family:'Campton-SemiBold'; font-size:86.2609px;">orm</tspan></text>
	</g>
</g>
<rect x="8434.1" y="966.9" class="st8" width="1592.8" height="792.2"/>
<g>
	<g>
		<g>
			<rect x="9143.9" y="1239.3" class="st9" width="77.1" height="12.6"/>
			<g>
				<rect x="9185.9" y="1276.8" class="st9" width="86.2" height="12.6"/>
				<polygon class="st9" points="9143.8,1239.3 9143.8,1251.9 9185.9,1289.4 9185.9,1276.8 				"/>
			</g>
			<g>
				<path class="st9" d="M9266.8,1314.7L9266.8,1314.7c0-3.5-2.8-6.3-6.3-6.3h-74.6v12.6h74.6
					C9263.9,1321,9266.8,1318.1,9266.8,1314.7z"/>
				<polygon class="st9" points="9143.8,1283.5 9185.9,1321 9185.9,1308.3 9143.8,1270.9 				"/>
			</g>
			<g>
				<polygon class="st9" points="9143.8,1315.1 9185.9,1352.5 9185.9,1339.9 9143.8,1302.5 				"/>
				<rect x="9185.9" y="1339.9" class="st9" width="86.2" height="12.6"/>
			</g>
			<g>
				<path class="st9" d="M9272.1,1276.8C9272.1,1276.8,9272.1,1276.8,9272.1,1276.8l0,12.6c0,0,0,0,0,0c13.9,0,25.3,11.3,25.3,25.3
					s-11.3,25.3-25.3,25.3c0,0,0,0,0,0v12.6c0,0,0,0,0,0c20.9,0,37.9-17,37.9-37.9S9293,1276.8,9272.1,1276.8z"/>
			</g>
			<g>
				<path class="st9" d="M9246.3,1277.2c0,2-0.2,4-0.7,5.8h12.8c0.3-1.9,0.4-3.9,0.4-5.8c0-20.9-17-37.9-37.9-37.9c0,0,0,0,0,0v12.6
					c0,0,0,0,0,0C9234.9,1251.9,9246.3,1263.3,9246.3,1277.2z"/>
			</g>
		</g>
		<text transform="matrix(1 0 0 1 9061.0098 1463.0785)"><tspan x="0" y="0" class="st9" style="font-family:'Campton-Book'; font-size:86.2609px;">Bi</tspan><tspan x="82.4" y="0" class="st9" style="font-family:'Campton-Book'; font-size:86.2609px; letter-spacing:5;">t</tspan><tspan x="124.9" y="0" class="st9" style="font-family:'Campton-SemiBold'; font-size:86.2609px; letter-spacing:5;">F</tspan><tspan x="180.5" y="0" class="st9" style="font-family:'Campton-SemiBold'; font-size:86.2609px;">orm</tspan></text>
	</g>
</g>
<rect x="8434.1" y="1759.1" class="st10" width="1592.8" height="792.2"/>
<g>
	<g>
		<g>
			<rect x="9143.9" y="2032.5" class="st6" width="77.1" height="12.6"/>
			<g>
				<rect x="9185.9" y="2069.9" class="st6" width="86.2" height="12.6"/>
				<polygon class="st6" points="9143.8,2032.5 9143.8,2045.1 9185.9,2082.6 9185.9,2069.9 				"/>
			</g>
			<g>
				<path class="st6" d="M9266.8,2107.8L9266.8,2107.8c0-3.5-2.8-6.3-6.3-6.3h-74.6v12.6h74.6
					C9263.9,2114.1,9266.8,2111.3,9266.8,2107.8z"/>
				<polygon class="st6" points="9143.8,2076.7 9185.9,2114.1 9185.9,2101.5 9143.8,2064.1 				"/>
			</g>
			<g>
				<polygon class="st6" points="9143.8,2108.3 9185.9,2145.7 9185.9,2133.1 9143.8,2095.7 				"/>
				<rect x="9185.9" y="2133.1" class="st6" width="86.2" height="12.6"/>
			</g>
			<g>
				<path class="st6" d="M9272.1,2069.9C9272.1,2069.9,9272.1,2069.9,9272.1,2069.9l0,12.6c0,0,0,0,0,0c13.9,0,25.3,11.3,25.3,25.3
					s-11.3,25.3-25.3,25.3c0,0,0,0,0,0v12.6c0,0,0,0,0,0c20.9,0,37.9-17,37.9-37.9C9310,2087,9293,2069.9,9272.1,2069.9z"/>
			</g>
			<g>
				<path class="st6" d="M9246.3,2070.4c0,2-0.2,4-0.7,5.8h12.8c0.3-1.9,0.4-3.9,0.4-5.8c0-20.9-17-37.9-37.9-37.9c0,0,0,0,0,0v12.6
					c0,0,0,0,0,0C9234.9,2045.1,9246.3,2056.5,9246.3,2070.4z"/>
			</g>
		</g>
		<text transform="matrix(1 0 0 1 9061.0098 2256.2571)"><tspan x="0" y="0" class="st6" style="font-family:'Campton-Book'; font-size:86.2609px;">Bi</tspan><tspan x="82.4" y="0" class="st6" style="font-family:'Campton-Book'; font-size:86.2609px; letter-spacing:5;">t</tspan><tspan x="124.9" y="0" class="st6" style="font-family:'Campton-SemiBold'; font-size:86.2609px; letter-spacing:5;">F</tspan><tspan x="180.5" y="0" class="st6" style="font-family:'Campton-SemiBold'; font-size:86.2609px;">orm</tspan></text>
	</g>
</g>
<rect x="6841.2" y="1759.1" width="1592.8" height="792.2"/>
<g>
	<g>
		<g>
			<rect x="7551" y="2032.5" class="st11" width="77.1" height="12.6"/>
			<g>
				<rect x="7592.9" y="2069.9" class="st11" width="86.2" height="12.6"/>
				<polygon class="st11" points="7550.8,2032.5 7550.8,2045.1 7592.9,2082.6 7592.9,2069.9 				"/>
			</g>
			<g>
				<path class="st11" d="M7673.8,2107.8L7673.8,2107.8c0-3.5-2.8-6.3-6.3-6.3h-74.6v12.6h74.6
					C7671,2114.1,7673.8,2111.3,7673.8,2107.8z"/>
				<polygon class="st11" points="7550.8,2076.7 7592.9,2114.1 7592.9,2101.5 7550.8,2064.1 				"/>
			</g>
			<g>
				<polygon class="st11" points="7550.8,2108.3 7592.9,2145.7 7592.9,2133.1 7550.8,2095.7 				"/>
				<rect x="7592.9" y="2133.1" class="st11" width="86.2" height="12.6"/>
			</g>
			<g>
				<path class="st11" d="M7679.2,2069.9C7679.2,2069.9,7679.1,2069.9,7679.2,2069.9l0,12.6c0,0,0,0,0,0c13.9,0,25.3,11.3,25.3,25.3
					s-11.3,25.3-25.3,25.3c0,0,0,0,0,0v12.6c0,0,0,0,0,0c20.9,0,37.9-17,37.9-37.9C7717.1,2087,7700.1,2069.9,7679.2,2069.9z"/>
			</g>
			<g>
				<path class="st11" d="M7653.3,2070.4c0,2-0.2,4-0.7,5.8h12.8c0.3-1.9,0.4-3.9,0.4-5.8c0-20.9-17-37.9-37.9-37.9c0,0,0,0,0,0
					v12.6c0,0,0,0,0,0C7642,2045.1,7653.3,2056.5,7653.3,2070.4z"/>
			</g>
		</g>
		<text transform="matrix(1 0 0 1 7468.0532 2256.2571)"><tspan x="0" y="0" class="st11" style="font-family:'Campton-Book'; font-size:86.2609px;">Bi</tspan><tspan x="82.4" y="0" class="st11" style="font-family:'Campton-Book'; font-size:86.2609px; letter-spacing:5;">t</tspan><tspan x="124.9" y="0" class="st11" style="font-family:'Campton-SemiBold'; font-size:86.2609px; letter-spacing:5;">F</tspan><tspan x="180.5" y="0" class="st11" style="font-family:'Campton-SemiBold'; font-size:86.2609px;">orm</tspan></text>
	</g>
</g>
<g>
	<g>
		<g>
			<g>
				<path class="st12" d="M8331.9,3258.2c21.4-0.3,43.1,5.9,61.9,20.2c0.8,0.6,1.8,1.5,1.8,2.5c0,1-0.7,1.8-1.3,2.5
					c-2.4,2.5-4.8,5-7.1,7.6c-0.9,1-1.9,2-3.2,2.2c-1.7,0.3-3.4-0.8-4.8-1.8c-28-19.9-66.7-20.3-95.1-0.9
					c-38.4,26.2-48.6,82.9-19.5,120.3c0.9,1.1,0.8,1.8-0.1,2.7c-3.6,3.5-7.2,7-10.7,10.7c-1.3,1.4-2.2,1.3-3.2,0
					C8199,3354.7,8245.2,3259.6,8331.9,3258.2z"/>
			</g>
			<g>
				<path class="st12" d="M8541.6,3462.4c-11.6-0.1-23.1-2-34.1-6c-2.8-1-32.7-16.1-31.3-17.8c3.1-3.5,6.2-7,9.3-10.5
					c0.9-1,1.9-2.1,3.3-2.1c0.9,0,1.7,0.4,2.5,0.8c7.1,3.8,14.2,8.9,22,12c8.5,3.3,17.9,4.3,27,4.4c42.3,0.7,85.3-34.3,86.1-78
					c0.4-20-5.4-40.9-18-56.7c-0.8-0.9-0.7-1.6,0.3-2.6c3.7-3.5,7.3-7.1,10.9-10.8c1.1-1.2,1.8-1.4,2.8,0
					c28.5,37.3,29.6,89.2,1.2,126.9c-8.7,11.5-19.8,21.1-32.5,28C8575.8,3458.4,8558.7,3462.5,8541.6,3462.4z"/>
			</g>
			<g>
				<path class="st12" d="M8331,3462.2c-23.8-0.2-47.7-8.3-66.3-23.6c4-4,7.9-8,11.9-12c0.4-0.4,0.9-0.9,1.6-1
					c0.7-0.1,1.4,0.4,2,0.8c19.8,15.1,46.4,21,70.7,14.7c21.7-5.7,39.3-20.5,54.7-36.1c10-10.2,19.4-21,29.5-31.1c1.2-1.2,1.9-1,3,0
					c12.2,12.3,24.5,24.6,36.8,36.9c1.4,1.4,1.3,2.2-0.1,3.5c-3.4,3.2-6.7,6.6-9.9,10c-1.4,1.4-2.3,1.4-3.7,0
					c-7.8-7.9-15.7-15.7-23.5-23.6c-0.9-0.9-1.4-0.9-2.3-0.1c-14.4,14.4-28.1,30.5-44.6,42.8
					C8373.3,3456.3,8352.1,3462.4,8331,3462.2z"/>
			</g>
			<g>
				<path class="st12" d="M8436.2,3346.6c-0.3-0.2-0.7-0.5-1.1-0.8c-12.4-12.4-24.8-24.8-37.1-37.2c-1-1-1.4-1.9-0.2-3.1
					c3.6-3.6,7.2-7.3,10.8-10.9c1.2-1.2,2-0.5,2.9,0.4c4.9,5,9.9,9.9,14.8,14.9c2.7,2.8,5.5,5.5,8.2,8.3c1.4,1.4,2.4,1.4,3.8,0
					c11.6-11.7,23.2-23.5,35-35c7.5-7.2,16.3-12.6,25.8-17c4.9-2.3,9.9-4.1,15.1-5.6c4.7-1.4,9.5-2.3,14.3-2.8
					c12.4-1.4,24.8-1.1,37.1,1.9c9.8,2.4,19,6.1,27.8,10.9c4.7,2.5,8.9,5.8,13.2,8.9c1.3,0.9,1.2,1.6,0.1,2.7
					c-3.7,3.6-7.3,7.4-10.9,11.1c-0.9,0.9-1.6,0.9-2.6,0.1c-8.4-6.3-17.5-11.2-27.6-14.1c-4.4-1.2-9-2.2-13.7-2.8
					c-4.4-0.6-8.7-0.4-13.1-0.6c-4.2-0.2-8.3,0.8-12.4,1.5c-5.5,1.1-11.1,2.5-16.3,4.7c-5.5,2.3-10.7,5.2-15.6,8.5
					c-5.7,3.8-10.4,8.6-15.2,13.4c-13.2,13.3-26.5,26.5-39.8,39.7c-0.7,0.7-1.3,1.4-1.9,2
					C8437.3,3346.2,8436.9,3346.6,8436.2,3346.6z"/>
			</g>
			<g>
				<path class="st12" d="M8331.5,3424.9c-7.6,0.5-13.7-0.8-19.8-2.6c-6.7-1.9-12.7-5.1-18.5-8.8c-1.4-0.9-2-1.6-0.4-3.1
					c3.6-3.4,7.1-7,10.5-10.5c1.1-1.1,2-1.3,3.5-0.4c11.2,6.8,23.3,8.6,35.9,5.3c8.2-2.2,15.4-6.5,21.5-12.5
					c10.3-10.3,20.5-20.6,30.9-30.9c1.3-1.3,1-2.1-0.1-3.2c-7.7-7.7-15.4-15.4-23.1-23.1c-1.4-1.4-1.5-2.2,0.1-3.6
					c3.6-3.3,6.9-6.8,10.2-10.2c1.1-1.2,1.9-1.1,3,0c11.1,11.2,22.3,22.3,33.5,33.5c1.3,1.3,2.5,2.6,3.8,3.8c1,0.9,0.9,1.6,0,2.5
					c-12.2,12.2-24.4,24.3-36.5,36.5c-4.8,4.8-9.5,9.9-14.9,14.1c-9.5,7.4-20.3,11.6-32.2,13.3
					C8336,3425.3,8333.2,3424.9,8331.5,3424.9z"/>
			</g>
			<g>
				<path class="st12" d="M8541.8,3294.5c6.9-0.4,13,0.9,19.3,2.7c6.9,2,12.9,5.3,18.9,9c1,0.6,1.5,1.3,0.4,2.4
					c-3.8,3.7-7.6,7.4-11.3,11.2c-1,1-1.6,1-2.9,0.3c-9.9-5.8-20.5-8.1-32.1-6.1c-11.4,2-20.4,8-28.3,16.1
					c-8,8.3-16.3,16.3-24.4,24.5c-1.3,1.3-2.6,2.7-4,4c-0.8,0.8-0.9,1.6,0,2.4c7.5,7.5,14.9,15,22.4,22.5c0.4,0.4,0.7,0.7,1.1,1
					c1.6,1,1.6,1.9,0.2,3.2c-3.5,3.5-7,7-10.4,10.6c-1.1,1.2-2,1.1-3.1,0c-9.4-9.4-18.8-18.8-28.1-28.1c-3.1-3.1-6.1-6.2-9.2-9.2
					c-0.9-0.9-1-1.5,0-2.5c15-15,30-29.9,45-44.9c7.2-7.2,15.6-12.5,25.2-15.7C8527.5,3295.5,8534.7,3293.8,8541.8,3294.5z"/>
			</g>
		</g>
	</g>
	<g>
		<text transform="matrix(1 0 0 1 8205.8047 3610.6118)"><tspan x="0" y="0" class="st12" style="font-family:'Campton-Book'; font-size:117.0855px;">bit </tspan><tspan x="185.8" y="0" class="st12" style="font-family:'Campton-Bold'; font-size:117.0855px;">form</tspan></text>
	</g>
</g>
<rect x="3402.7" y="-5209" class="st13" width="3188.9" height="1586"/>
<g>
	<g>
		<g>
			<path class="st14" d="M4893.8-4540c0-10.2,0-19.5,0-28.8c0-12.7,0.2-25.3-0.1-38c-0.1-4.5,1.4-6.3,5.6-7.4
				c41.3-10.9,82.6-21.8,123.8-33.1c12.2-3.3,24.3-5.4,36.8-2c27.1,7.4,43.9,33.1,40.3,62c-3.3,26.4-27.3,47.1-54.4,47.1
				c-30.2,0-60.3,0-90.5,0c-1.8,0-3.6,0-5.9,0c0-8.6,0-16.8,0-24.9c0-7.5,0.1-15,0-22.5c-0.1-2.7,0.6-4.2,3.6-4.8
				c4.7-0.9,9.3-2.4,14.7-3.9c0,12.8,0,25.2,0,38c5.5,0,10.3,0,15.1,0c20.7,0,41.3,0.2,62-0.1c15-0.2,26.6-7.1,33.5-20.5
				c6.7-13.1,5.6-26.1-2.8-38.2c-8.7-12.6-24.4-18.4-39.2-14.4c-40,10.6-80,21.5-120,32.1c-3.6,0.9-4.3,2.5-4.2,5.8
				c0.2,14.8,0,29.7,0.1,44.5c0,3.2-0.8,4.8-4.1,5.4C4903.4-4542.9,4899-4541.5,4893.8-4540z"/>
			<path class="st14" d="M5056.8-4710.4c-2.6-17.8-16.6-29.8-34.4-29.8c-22.5,0-45,0-67.5,0c-1.8,0-3.5,0.1-5.2,0.2
				c0,17.8,0,35.1,0,52.7c2.1-0.5,3.9-0.9,5.6-1.4c12.4-3.4,12.4-3.4,12.4-16.5c0-5.6,0-11.1,0-16.9c18.3,0,35.6,0,52.9,0
				c9.9,0,16.7,5.4,17.8,13.9c1.1,8.6-4.1,15.3-13.8,17.9c-23.4,6.3-46.9,12.6-70.3,18.9c-13.9,3.7-27.8,7.4-42.4,11.3l-18.2,5.5
				c0,5.9,0,11.9,0,18.5c27.4-7.3,53.9-14.4,80.3-21.5c19.3-5.2,38.6-10.2,57.8-15.6C5048.6-4677.8,5059.2-4693.9,5056.8-4710.4z"/>
		</g>
	</g>
	<text transform="matrix(1 0 0 1 4613.1699 -4302.9927)"><tspan x="0" y="0" class="st14" style="font-family:'Campton-Book'; font-size:186.5905px;">Bit </tspan><tspan x="309.4" y="0" class="st14" style="font-family:'Campton-Bold'; font-size:186.5905px;">Form</tspan></text>
</g>
<g>
	<g>
		<g>
			<path class="st14" d="M2529.9,2729c8.4,2.9,15.8,5,22.9,8.1c40.6,17.7,66.6,48.6,75.3,91.6c10.1,50-7.9,96.6-50.9,128.3
				c-23.8,17.5-50.6,24.6-80,24.5c-42.2-0.1-84.4,0.8-126.6,0.7c-5.3,0-11.4-2.1-15.8-5.2c-8.8-6-10.8-13.7-7.7-23.2
				c2.9-9,9.7-14.6,19.9-14.8c23.5-0.4,47-0.3,70.4-0.4c23-0.1,45.9,0,68.9-0.2c42.1-0.4,78.4-37.1,80.6-79.1
				c2.3-42.8-29.3-79.2-71-88c-1.8-0.4-3.6-0.4-5.4-0.4c-39.1,0-78.3,0-117.4,0c-1,0-2,0.2-4.3,0.4c0,8.8,0,17.6,0,26.3
				c0,9.7,0.2,19.3,0.1,29c-0.1,4.6,1.4,6.7,6.3,6.6c23.6-0.2,47.3,0,70.9-0.4c3.4-0.1,7.4-2.3,10.1-4.7
				c16.8-14.5,32.4-11.7,44.5-3.6c16.5,11,20.4,29.8,12.2,47c-9.3,19.3-38.4,25.5-54.1,11c-5-4.6-10-6.5-16.6-6.5
				c-31.6,0.2-63.1,0.1-94.7,0c-13.9-0.1-21.9-7.8-21.9-21.8c-0.2-35-0.2-69.9,0.1-104.9c0.1-14.6,5.2-20.9,19.8-21.7
				c22.9-1.2,45.9-0.8,68.8-0.9c51.6-0.1,90.4-45.3,82.8-96.2c-5.3-35.7-33.5-60.9-64.8-68.9c-7.4-1.9-15.5-1.8-23.3-1.8
				c-54.8-0.2-109.6-0.7-164.4,0.1c-12.5,0.2-25.2-10.7-25-22.5c0.1-12.3,11.3-22.4,25.3-22.4c33.4,0,66.8,0.1,100.2,0.1
				c23,0,45.9-0.4,68.9,0c57.5,1,107.8,37.1,124.2,94.4c11.5,40.2,3.3,77.8-22.2,111.2C2534,2723,2532.4,2725.4,2529.9,2729z"/>
			<path class="st14" d="M2284.1,2664.8c0,4.4,0,7.9,0,11.5c-0.1,77.3-0.3,154.5-0.4,231.8c0,16.4,0.2,32.9-0.1,49.3
				c-0.4,19.4-14.7,29.1-32.6,21.7c-9.7-4-10.8-13.5-10.9-22.4c-0.3-27.4-0.1-54.8-0.2-82.2c-0.1-73.6-0.2-147.2-0.3-220.8
				c0-4.4,0.1-8.9,0.6-13.3c1.3-11,9.5-18.3,20.5-18.3c44.1-0.1,88.2-0.1,132.3-0.1c5.4,0,9.9-0.2,14.3-5.2
				c10.8-12.3,31.5-10.9,40.6-6.2c14.5,7.4,22.2,21.3,20.7,36.2c-1.6,15.5-12.4,27.8-28.1,31.9c-13.7,3.6-24.8-1.6-35-10.3
				c-1.8-1.5-4.2-3.3-6.4-3.3C2361.4,2664.7,2323.6,2664.8,2284.1,2664.8z"/>
		</g>
	</g>
</g>
<path class="st15" d="M743.6,2941.7c8.4,2.9,15.8,5,22.9,8.1c40.6,17.7,66.6,48.6,75.3,91.6c10.2,50-7.9,96.6-50.9,128.3
	c-23.8,17.5-50.6,24.6-80,24.5c-42.2-0.1-84.4,0.8-126.6,0.7c-5.3,0-11.4-2.1-15.8-5.2c-8.8-6-10.8-13.7-7.7-23.2
	c2.9-9,9.7-14.6,19.9-14.8c23.5-0.4,47-0.3,70.4-0.4c23-0.1,45.9,0,68.9-0.2c42.1-0.4,78.4-37.1,80.6-79.1c2.3-42.8-29.3-79.2-71-88
	c-1.8-0.4-3.6-0.4-5.4-0.4c-39.1,0-78.3,0-117.4,0c-1,0-2,0.2-4.3,0.4c0,8.8,0,17.6,0,26.3c0,9.7,0.2,19.3,0.1,29
	c-0.1,4.6,1.4,6.7,6.3,6.6c23.6-0.2,47.3,0,70.9-0.4c3.4-0.1,7.4-2.3,10.1-4.7c16.8-14.5,32.4-11.7,44.5-3.6
	c16.5,11,20.4,29.8,12.2,47c-9.3,19.3-38.4,25.5-54.1,11c-5-4.6-10-6.5-16.6-6.5c-31.6,0.2-63.1,0.1-94.7,0
	c-13.9-0.1-21.9-7.8-21.9-21.8c-0.2-35-0.2-69.9,0.1-104.9c0.1-14.6,5.2-20.9,19.8-21.7c22.9-1.2,45.9-0.8,68.8-0.9
	c51.6-0.1,90.4-45.3,82.8-96.2c-5.3-35.7-33.5-60.9-64.8-68.9c-7.4-1.9-15.5-1.8-23.3-1.8c-54.8-0.2-109.6-0.7-164.4,0.1
	c-12.5,0.2-25.2-10.7-25-22.5c0.1-12.3,11.3-22.4,25.3-22.4c33.4,0,66.8,0.1,100.2,0.1c23,0,45.9-0.4,68.9,0
	c57.5,1,107.8,37.1,124.2,94.4c11.5,40.2,3.3,77.8-22.2,111.2C747.7,2935.7,746.2,2938,743.6,2941.7z M613,2877.6
	c2.1,0,4.6,1.8,6.4,3.3c10.2,8.7,21.3,13.9,35,10.3c15.7-4.1,26.5-16.4,28.1-31.9c1.5-14.9-6.2-28.8-20.7-36.2
	c-9.1-4.7-29.7-6-40.6,6.2c-4.4,5-9,5.2-14.3,5.2c-44.1,0.1-88.2,0.1-132.3,0.1c-11,0-19.2,7.3-20.5,18.3c-0.5,4.4-0.6,8.9-0.6,13.3
	c0.1,73.6,0.2,147.2,0.3,220.8c0,27.4-0.2,54.8,0.2,82.2c0.1,8.9,1.2,18.4,10.9,22.4c17.9,7.3,32.2-2.4,32.6-21.7
	c0.3-16.4,0-32.9,0.1-49.3c0.1-77.3,0.3-154.5,0.4-231.8c0-3.6,0-7.1,0-11.5C537.3,2877.4,575.1,2877.4,613,2877.6z"/>
<rect x="3402.5" y="173.4" class="st14" width="3188.9" height="1586"/>
<g>
	<g>
		<g>
			<g>
				<path class="st13" d="M5055.3,832.9c4.4,1.5,8.2,2.6,11.9,4.2c21.1,9.2,34.6,25.2,39.1,47.6c5.3,26-4.1,50.2-26.4,66.7
					c-12.4,9.1-26.3,12.8-41.6,12.7c-21.9-0.1-43.9,0.4-65.8,0.4c-2.8,0-5.9-1.1-8.2-2.7c-4.6-3.1-5.6-7.1-4-12
					c1.5-4.7,5-7.6,10.3-7.7c12.2-0.2,24.4-0.1,36.6-0.2c11.9,0,23.9,0,35.8-0.1c21.9-0.2,40.7-19.3,41.9-41.1
					c1.2-22.3-15.2-41.1-36.9-45.7c-0.9-0.2-1.9-0.2-2.8-0.2c-20.3,0-40.7,0-61,0c-0.5,0-1.1,0.1-2.2,0.2c0,4.6,0,9.1,0,13.7
					c0,5,0.1,10,0,15.1c0,2.4,0.7,3.5,3.3,3.4c12.3-0.1,24.6,0,36.9-0.2c1.8,0,3.8-1.2,5.3-2.4c8.7-7.5,16.8-6.1,23.1-1.9
					c8.6,5.7,10.6,15.5,6.3,24.4c-4.8,10.1-19.9,13.2-28.1,5.7c-2.6-2.4-5.2-3.4-8.6-3.4c-16.4,0.1-32.8,0.1-49.2,0
					c-7.2,0-11.4-4.1-11.4-11.3c-0.1-18.2-0.1-36.3,0.1-54.5c0.1-7.6,2.7-10.9,10.3-11.3c11.9-0.6,23.8-0.4,35.8-0.4
					c26.8-0.1,47-23.5,43-50c-2.8-18.6-17.4-31.6-33.7-35.8c-3.9-1-8.1-0.9-12.1-0.9c-28.5-0.1-57-0.4-85.4,0
					c-6.5,0.1-13.1-5.6-13-11.7c0.1-6.4,5.9-11.7,13.1-11.7c17.4,0,34.7,0.1,52.1,0.1c11.9,0,23.9-0.2,35.8,0
					c29.9,0.5,56,19.3,64.5,49.1c6,20.9,1.7,40.4-11.5,57.8C5057.5,829.8,5056.7,831,5055.3,832.9z"/>
				<path class="st13" d="M4927.6,799.5c0,2.3,0,4.1,0,6c-0.1,40.1-0.1,80.3-0.2,120.4c0,8.5,0.1,17.1,0,25.6
					c-0.2,10.1-7.6,15.1-16.9,11.3c-5-2.1-5.6-7-5.7-11.6c-0.2-14.2-0.1-28.5-0.1-42.7c0-38.2-0.1-76.5-0.1-114.7
					c0-2.3,0-4.6,0.3-6.9c0.7-5.7,4.9-9.5,10.7-9.5c22.9,0,45.8,0,68.8-0.1c2.8,0,5.1-0.1,7.4-2.7c5.6-6.4,16.3-5.7,21.1-3.2
					c7.5,3.9,11.5,11.1,10.7,18.8c-0.8,8-6.4,14.4-14.6,16.6c-7.1,1.9-12.9-0.8-18.2-5.4c-0.9-0.8-2.2-1.7-3.3-1.7
					C4967.8,799.5,4948.1,799.5,4927.6,799.5z"/>
			</g>
		</g>
	</g>
</g>
<rect x="3402.5" y="-3277.5" class="st16" width="3188.9" height="1586"/>
<g>
	<g>
		<g>
			<g>
				<text transform="matrix(1 0 0 1 4713.4517 -2316.5278)"><tspan x="0" y="0" class="st17" style="font-family:'BalooBhai2-Regular'; font-size:151.8548px;">Bit</tspan><tspan x="184" y="0" class="st17" style="font-family:'BalooBhai2-Bold'; font-size:151.8548px;"> Form</tspan></text>
			</g>
		</g>
		<g>
			<g>
				<path class="st17" d="M5057.6-2618c4.4,1.5,8.2,2.6,11.9,4.2c21.1,9.2,34.6,25.2,39.1,47.6c5.3,26-4.1,50.2-26.4,66.7
					c-12.4,9.1-26.3,12.8-41.6,12.7c-21.9-0.1-43.9,0.4-65.8,0.4c-2.8,0-5.9-1.1-8.2-2.7c-4.6-3.1-5.6-7.1-4-12
					c1.5-4.7,5-7.6,10.3-7.7c12.2-0.2,24.4-0.1,36.6-0.2c11.9,0,23.9,0,35.8-0.1c21.9-0.2,40.7-19.3,41.9-41.1
					c1.2-22.3-15.2-41.1-36.9-45.7c-0.9-0.2-1.9-0.2-2.8-0.2c-20.3,0-40.7,0-61,0c-0.5,0-1.1,0.1-2.2,0.2c0,4.6,0,9.1,0,13.7
					c0,5,0.1,10,0,15.1c0,2.4,0.7,3.5,3.3,3.4c12.3-0.1,24.6,0,36.9-0.2c1.8,0,3.8-1.2,5.3-2.4c8.7-7.5,16.8-6.1,23.1-1.9
					c8.6,5.7,10.6,15.5,6.3,24.4c-4.8,10.1-19.9,13.2-28.1,5.7c-2.6-2.4-5.2-3.4-8.6-3.4c-16.4,0.1-32.8,0.1-49.2,0
					c-7.2,0-11.4-4.1-11.4-11.3c-0.1-18.2-0.1-36.3,0.1-54.5c0.1-7.6,2.7-10.9,10.3-11.3c11.9-0.6,23.8-0.4,35.8-0.4
					c26.8-0.1,47-23.5,43-50c-2.8-18.6-17.4-31.6-33.7-35.8c-3.9-1-8.1-0.9-12.1-0.9c-28.5-0.1-57-0.4-85.4,0
					c-6.5,0.1-13.1-5.6-13-11.7c0.1-6.4,5.9-11.7,13.1-11.7c17.4,0,34.7,0.1,52.1,0.1c11.9,0,23.9-0.2,35.8,0
					c29.9,0.5,56,19.3,64.5,49.1c6,20.9,1.7,40.4-11.5,57.8C5059.7-2621.1,5058.9-2619.9,5057.6-2618z"/>
				<path class="st17" d="M4929.9-2651.4c0,2.3,0,4.1,0,6c-0.1,40.1-0.1,80.3-0.2,120.4c0,8.5,0.1,17.1,0,25.6
					c-0.2,10.1-7.6,15.1-16.9,11.3c-5-2.1-5.6-7-5.7-11.6c-0.2-14.2-0.1-28.5-0.1-42.7c0-38.2-0.1-76.5-0.1-114.7
					c0-2.3,0-4.6,0.3-6.9c0.7-5.7,4.9-9.5,10.7-9.5c22.9,0,45.8,0,68.8-0.1c2.8,0,5.1-0.1,7.4-2.7c5.6-6.4,16.3-5.7,21.1-3.2
					c7.5,3.9,11.5,11.1,10.7,18.8c-0.8,8-6.4,14.4-14.6,16.6c-7.1,1.9-12.9-0.8-18.2-5.4c-0.9-0.8-2.2-1.7-3.3-1.7
					C4970-2651.4,4950.4-2651.4,4929.9-2651.4z"/>
			</g>
		</g>
	</g>
</g>
<g>
	<path class="st13" d="M1937.5,3358.6c0,37-32.3,62-82.6,62h-79.4c-9.5,0-17.2-7.7-17.2-17.2v-189.2c0-11.1,9-20.2,20.2-20.2h73.8
		c45.7,0,73.6,22.3,73.6,57.3c0,25-14,44.7-38.3,52C1920.8,3308.9,1937.5,3330.6,1937.5,3358.6z M1784.5,3217.3v77.6h61.7
		c35,0,54.7-15.7,54.7-40.7c0-22.7-19.3-37-51.3-37H1784.5z M1911.5,3355.9c0-24.7-21.3-39-57-39h-70v80.3h69.3
		C1890.2,3397.2,1911.5,3379.6,1911.5,3355.9z"/>
	<path class="st13" d="M1984.2,3207.9c0-9.7,7.3-17,17-17c9.7,0,17.3,7.3,17.3,17c0,9.3-7.7,16.7-17.3,16.7
		C1991.5,3224.6,1984.2,3217.3,1984.2,3207.9z"/>
	<path class="st13" d="M2014.1,3278.6v129.3c0,7-5.7,12.7-12.7,12.7l0,0c-7,0-12.7-5.7-12.7-12.7v-129.3c0-7,5.7-12.7,12.7-12.7l0,0
		C2008.5,3265.9,2014.1,3271.6,2014.1,3278.6z"/>
	<path class="st13" d="M2309.3,3235.9v58.3h83c11.6,0,21,9.4,21,21v0c0,11.6-9.4,21-21,21h-83v61.6c0,12.5-10.1,22.7-22.7,22.7l0,0
		c-12.5,0-22.7-10.1-22.7-22.7v-189.1c0-8.2,6.6-14.8,14.8-14.8h128.4c11.6,0,21,9.4,21,21l0,0c0,11.6-9.4,21-21,21H2309.3z"/>
	<path class="st13" d="M2624.2,3341.2c0,49-34.7,83.3-84.3,83.3c-50,0-84.6-34.3-84.6-83.3c0-49.3,34.7-83.6,84.6-83.6
		C2589.6,3257.6,2624.2,3291.9,2624.2,3341.2z M2580.6,3341.2c0-26-16.7-44-40.7-44c-24.3,0-41,18-41,44c0,25.7,16.7,43.7,41,43.7
		C2563.9,3384.9,2580.6,3366.9,2580.6,3341.2z"/>
	<path class="st13" d="M2755.2,3282.2L2755.2,3282.2c0,9.7-6.8,18.2-16.3,20c-16.6,3.3-29.5,10.3-40,22v74.5
		c0,12.1-9.8,21.8-21.8,21.8l0,0c-12.1,0-21.8-9.8-21.8-21.8v-114.3c0-12.6,10.2-22.8,22.8-22.8h20.9v18.3
		c8.5-8.1,18.3-13.9,29.8-17.4C2741.9,3258.6,2755.2,3268.4,2755.2,3282.2z"/>
	<path class="st13" d="M3049.1,3332.2v66.5c0,12.1-9.8,21.8-21.8,21.8l0,0c-12.1,0-21.8-9.8-21.8-21.8v-66.5c0-24.7-13-35-32.3-35
		c-12,0-24.3,4-34.7,16.7c0.7,5,1,10,1,15.7v69.2c0,12.1-9.8,21.8-21.8,21.8l0,0c-12.1,0-21.8-9.8-21.8-21.8v-69.2
		c0-24.3-13-32.3-29.7-32.3c-13.7,0-26,5.3-36.3,18.7v82.8c0,12.1-9.8,21.8-21.8,21.8l0,0c-12.1,0-21.8-9.8-21.8-21.8V3281
		c0-10.7,8.7-19.5,19.5-19.5h24.2v10.7c10.7-9,23-14.7,42-14.7c21,0,38.7,6.7,50.7,20c15.7-13.3,32-20,53.7-20
		C3019.2,3257.6,3049.1,3284.2,3049.1,3332.2z"/>
	<path class="st13" d="M2170.4,3238.1L2170.4,3238.1c0-6-4.8-10.8-10.8-10.8h-47.5v21.7h47.5
		C2165.6,3248.9,2170.4,3244.1,2170.4,3238.1z"/>
	<path class="st13" d="M2172.1,3395.6c-8.3,3-18,5.3-26.7,5.3c-22,0-33.3-11-33.3-37.7v-74.4v-1.3v-21.7v-4.6v-39.7
		c0-7-5.7-12.7-12.7-12.7l0,0c-7,0-12.7,5.7-12.7,12.7v44.3v21.7v75.6c0,40.3,18.3,61.3,56.3,61.3c5.2,0,10.8-0.4,17-1.5
		c8.7-1.6,14.8-10,13.4-18.7L2172.1,3395.6z"/>
</g>
<g>
	<path class="st13" d="M3352.7,2518.7v-92.2c0-33.2-17.7-63.9-46.5-80.5l-79.9-46.1c-28.8-16.6-64.2-16.6-92.9,0l-79.9,46.1
		c-28.8,16.6-46.5,47.3-46.5,80.5v92.2c0,33.2,17.7,63.9,46.5,80.5l79.9,46.1c28.8,16.6,64.2,16.6,92.9,0l79.9-46.1
		C3334.9,2582.6,3352.7,2552,3352.7,2518.7z"/>
	<g>
		<g>
			<path class="st14" d="M3232.1,2464.6c3.5,1.2,6.6,2.1,9.5,3.4c16.8,7.3,27.6,20.1,31.2,38c4.2,20.7-3.3,40-21.1,53.2
				c-9.9,7.3-21,10.2-33.2,10.1c-17.5-0.1-35,0.3-52.5,0.3c-2.2,0-4.7-0.9-6.6-2.1c-3.7-2.5-4.5-5.7-3.2-9.6c1.2-3.7,4-6.1,8.2-6.1
				c9.7-0.2,19.5-0.1,29.2-0.1c9.5,0,19,0,28.6-0.1c17.4-0.2,32.5-15.4,33.4-32.8c1-17.8-12.2-32.8-29.4-36.5
				c-0.7-0.2-1.5-0.2-2.3-0.2c-16.2,0-32.4,0-48.7,0c-0.4,0-0.8,0.1-1.8,0.1c0,3.7,0,7.3,0,10.9c0,4,0.1,8,0,12
				c0,1.9,0.6,2.8,2.6,2.7c9.8-0.1,19.6,0,29.4-0.2c1.4,0,3.1-1,4.2-1.9c7-6,13.4-4.9,18.5-1.5c6.8,4.6,8.5,12.4,5,19.5
				c-3.8,8-15.9,10.6-22.4,4.5c-2.1-1.9-4.1-2.7-6.9-2.7c-13.1,0.1-26.2,0-39.3,0c-5.8,0-9.1-3.2-9.1-9c-0.1-14.5-0.1-29,0-43.5
				c0-6,2.1-8.7,8.2-9c9.5-0.5,19-0.3,28.5-0.4c21.4,0,37.5-18.8,34.3-39.9c-2.2-14.8-13.9-25.2-26.9-28.6c-3.1-0.8-6.4-0.7-9.7-0.8
				c-22.7-0.1-45.4-0.3-68.1,0c-5.2,0.1-10.4-4.5-10.4-9.3c0.1-5.1,4.7-9.3,10.5-9.3c13.8,0,27.7,0,41.5,0.1c9.5,0,19-0.2,28.5,0
				c23.8,0.4,44.7,15.4,51.5,39.1c4.8,16.7,1.4,32.2-9.2,46.1C3233.8,2462.1,3233.2,2463.1,3232.1,2464.6z"/>
			<path class="st14" d="M3130.3,2437.9c0,1.8,0,3.3,0,4.8c-0.1,32-0.1,64-0.2,96c0,6.8,0.1,13.6,0,20.4c-0.2,8-6.1,12-13.5,9
				c-4-1.6-4.5-5.6-4.5-9.3c-0.1-11.4-0.1-22.7-0.1-34.1c0-30.5-0.1-61-0.1-91.5c0-1.8,0-3.7,0.2-5.5c0.5-4.6,3.9-7.6,8.5-7.6
				c18.3,0,36.6,0,54.8-0.1c2.2,0,4.1-0.1,5.9-2.2c4.5-5.1,13-4.5,16.8-2.6c6,3.1,9.2,8.8,8.6,15c-0.7,6.4-5.1,11.5-11.6,13.2
				c-5.7,1.5-10.3-0.7-14.5-4.3c-0.7-0.6-1.8-1.4-2.6-1.4C3162.3,2437.9,3146.6,2437.9,3130.3,2437.9z"/>
		</g>
	</g>
</g>
<g>
	<g>
		<g>
			<g>
				<path class="st13" d="M4812.9,1087.8c0,15.3-13.4,25.7-34.2,25.7h-32.9c-3.9,0-7.1-3.2-7.1-7.1V1028c0-4.6,3.7-8.4,8.4-8.4h30.6
					c18.9,0,30.5,9.3,30.5,23.8c0,10.4-5.8,18.5-15.9,21.5C4806,1067.3,4812.9,1076.2,4812.9,1087.8z M4749.5,1029.3v32.2h25.5
					c14.5,0,22.6-6.5,22.6-16.8c0-9.4-8-15.3-21.3-15.3H4749.5z M4802.1,1086.7c0-10.2-8.8-16.2-23.6-16.2h-29v33.3h28.7
					C4793.3,1103.9,4802.1,1096.5,4802.1,1086.7z"/>
			</g>
		</g>
		<g>
			<path class="st13" d="M4832.2,1025.4c0-4,3-7,7-7c4,0,7.2,3,7.2,7c0,3.9-3.2,6.9-7.2,6.9
				C4835.3,1032.3,4832.2,1029.3,4832.2,1025.4z"/>
		</g>
		<g>
			<path class="st13" d="M4844.6,1054.7v53.6c0,2.9-2.3,5.2-5.2,5.2l0,0c-2.9,0-5.2-2.3-5.2-5.2v-53.6c0-2.9,2.3-5.2,5.2-5.2l0,0
				C4842.3,1049.5,4844.6,1051.8,4844.6,1054.7z"/>
		</g>
		<g>
			<g>
				<path class="st13" d="M4967,1037v24.2h34.4c4.8,0,8.7,3.9,8.7,8.7l0,0c0,4.8-3.9,8.7-8.7,8.7H4967v25.5c0,5.2-4.2,9.4-9.4,9.4
					l0,0c-5.2,0-9.4-4.2-9.4-9.4v-78.4c0-3.4,2.8-6.2,6.2-6.2h53.2c4.8,0,8.7,3.9,8.7,8.7l0,0c0,4.8-3.9,8.7-8.7,8.7H4967z"/>
			</g>
		</g>
		<g>
			<g>
				<path class="st13" d="M5097.5,1080.7c0,20.3-14.4,34.5-34.9,34.5c-20.7,0-35.1-14.2-35.1-34.5c0-20.4,14.4-34.7,35.1-34.7
					C5083.1,1046,5097.5,1060.2,5097.5,1080.7z M5079.4,1080.7c0-10.8-6.9-18.2-16.8-18.2c-10.1,0-17,7.5-17,18.2
					c0,10.6,6.9,18.1,17,18.1C5072.5,1098.8,5079.4,1091.3,5079.4,1080.7z"/>
			</g>
		</g>
		<g>
			<g>
				<path class="st13" d="M5151.8,1056.2L5151.8,1056.2c0,4-2.8,7.5-6.8,8.3c-6.9,1.4-12.2,4.3-16.6,9.1v30.9c0,5-4.1,9-9,9l0,0
					c-5,0-9-4-9-9v-47.4c0-5.2,4.2-9.4,9.4-9.4h8.6v7.6c3.5-3.3,7.6-5.8,12.4-7.2C5146.2,1046.4,5151.8,1050.5,5151.8,1056.2z"/>
			</g>
		</g>
		<g>
			<g>
				<path class="st13" d="M5273.6,1076.9v27.6c0,5-4,9-9,9l0,0c-5,0-9-4-9-9v-27.6c0-10.2-5.4-14.5-13.4-14.5
					c-5,0-10.1,1.7-14.4,6.9c0.3,2.1,0.4,4.1,0.4,6.5v28.7c0,5-4,9-9,9l0,0c-5,0-9-4-9-9v-28.7c0-10.1-5.4-13.4-12.3-13.4
					c-5.7,0-10.8,2.2-15.1,7.7v34.3c0,5-4,9-9,9l0,0c-5,0-9-4-9-9v-48.8c0-4.5,3.6-8.1,8.1-8.1h10v4.4c4.4-3.7,9.5-6.1,17.4-6.1
					c8.7,0,16,2.8,21,8.3c6.5-5.5,13.3-8.3,22.2-8.3C5261.1,1046,5273.6,1057,5273.6,1076.9z"/>
			</g>
		</g>
		<g>
			<path class="st13" d="M4909.4,1037.9L4909.4,1037.9c0-2.5-2-4.5-4.5-4.5h-19.7v9h19.7C4907.4,1042.4,4909.4,1040.4,4909.4,1037.9
				z"/>
		</g>
		<g>
			<path class="st13" d="M4910.1,1103.2c-3.5,1.2-7.5,2.2-11,2.2c-9.1,0-13.8-4.6-13.8-15.6V1059v-0.5v-9v-1.9v-16.5
				c0-2.9-2.3-5.2-5.2-5.2l0,0c-2.9,0-5.2,2.3-5.2,5.2v18.4v9v31.3c0,16.7,7.6,25.4,23.3,25.4c2.2,0,4.5-0.2,7-0.6
				c3.6-0.7,6.1-4.1,5.5-7.8L4910.1,1103.2z"/>
		</g>
	</g>
</g>
<rect x="3402.5" y="-1496.4" class="st13" width="3188.9" height="1586"/>
<g>
	<g>
		<g>
			<path class="st14" d="M5055.3-836.9c4.4,1.5,8.2,2.6,11.9,4.2c21.1,9.2,34.6,25.2,39.1,47.6c5.3,26-4.1,50.2-26.4,66.7
				c-12.4,9.1-26.3,12.8-41.6,12.7c-21.9-0.1-43.9,0.4-65.8,0.4c-2.8,0-5.9-1.1-8.2-2.7c-4.6-3.1-5.6-7.1-4-12
				c1.5-4.7,5-7.6,10.3-7.7c12.2-0.2,24.4-0.1,36.6-0.2c11.9,0,23.9,0,35.8-0.1c21.9-0.2,40.7-19.3,41.9-41.1
				c1.2-22.3-15.2-41.1-36.9-45.7c-0.9-0.2-1.9-0.2-2.8-0.2c-20.3,0-40.7,0-61,0c-0.5,0-1.1,0.1-2.2,0.2c0,4.6,0,9.1,0,13.7
				c0,5,0.1,10,0,15.1c0,2.4,0.7,3.5,3.3,3.4c12.3-0.1,24.6,0,36.9-0.2c1.8,0,3.8-1.2,5.3-2.4c8.7-7.5,16.8-6.1,23.1-1.9
				c8.6,5.7,10.6,15.5,6.3,24.4c-4.8,10.1-19.9,13.2-28.1,5.7c-2.6-2.4-5.2-3.4-8.6-3.4c-16.4,0.1-32.8,0.1-49.2,0
				c-7.2,0-11.4-4.1-11.4-11.3c-0.1-18.2-0.1-36.3,0.1-54.5c0.1-7.6,2.7-10.9,10.3-11.3c11.9-0.6,23.8-0.4,35.8-0.4
				c26.8-0.1,47-23.5,43-50c-2.8-18.6-17.4-31.6-33.7-35.8c-3.9-1-8.1-0.9-12.1-0.9c-28.5-0.1-57-0.4-85.4,0
				c-6.5,0.1-13.1-5.6-13-11.7c0.1-6.4,5.9-11.7,13.1-11.7c17.4,0,34.7,0.1,52.1,0.1c11.9,0,23.9-0.2,35.8,0
				c29.9,0.5,56,19.3,64.5,49.1c6,20.9,1.7,40.4-11.5,57.8C5057.5-840,5056.7-838.8,5055.3-836.9z"/>
			<path class="st14" d="M4927.6-870.3c0,2.3,0,4.1,0,6c-0.1,40.1-0.1,80.3-0.2,120.4c0,8.5,0.1,17.1,0,25.6
				c-0.2,10.1-7.6,15.1-16.9,11.3c-5-2.1-5.6-7-5.7-11.6c-0.2-14.2-0.1-28.5-0.1-42.7c0-38.2-0.1-76.5-0.1-114.7
				c0-2.3,0-4.6,0.3-6.9c0.7-5.7,4.9-9.5,10.7-9.5c22.9,0,45.8,0,68.8-0.1c2.8,0,5.1-0.1,7.4-2.7c5.6-6.4,16.3-5.7,21.1-3.2
				c7.5,3.9,11.5,11.1,10.7,18.8c-0.8,8-6.4,14.4-14.6,16.6c-7.1,1.9-12.9-0.8-18.2-5.4c-0.9-0.8-2.2-1.7-3.3-1.7
				C4967.8-870.3,4948.1-870.3,4927.6-870.3z"/>
		</g>
	</g>
</g>
<g>
	<path class="st14" d="M4812.9-581.9c0,15.3-13.4,25.7-34.2,25.7h-32.9c-3.9,0-7.1-3.2-7.1-7.1v-78.4c0-4.6,3.7-8.4,8.4-8.4h30.6
		c18.9,0,30.5,9.3,30.5,23.8c0,10.4-5.8,18.5-15.9,21.5C4806-602.5,4812.9-593.5,4812.9-581.9z M4749.5-640.5v32.2h25.5
		c14.5,0,22.6-6.5,22.6-16.8c0-9.4-8-15.3-21.3-15.3H4749.5z M4802.1-583c0-10.2-8.8-16.2-23.6-16.2h-29v33.3h28.7
		C4793.3-565.9,4802.1-573.2,4802.1-583z"/>
	<path class="st14" d="M4832.2-644.4c0-4,3-7,7-7c4,0,7.2,3,7.2,7c0,3.9-3.2,6.9-7.2,6.9C4835.3-637.5,4832.2-640.5,4832.2-644.4z"
		/>
	<path class="st14" d="M4844.6-615.1v53.6c0,2.9-2.3,5.2-5.2,5.2l0,0c-2.9,0-5.2-2.3-5.2-5.2v-53.6c0-2.9,2.3-5.2,5.2-5.2l0,0
		C4842.3-620.3,4844.6-618,4844.6-615.1z"/>
	<path class="st14" d="M4967-632.8v24.2h34.4c4.8,0,8.7,3.9,8.7,8.7l0,0c0,4.8-3.9,8.7-8.7,8.7H4967v25.5c0,5.2-4.2,9.4-9.4,9.4l0,0
		c-5.2,0-9.4-4.2-9.4-9.4V-644c0-3.4,2.8-6.2,6.2-6.2h53.2c4.8,0,8.7,3.9,8.7,8.7l0,0c0,4.8-3.9,8.7-8.7,8.7H4967z"/>
	<path class="st14" d="M5097.5-589.1c0,20.3-14.4,34.5-34.9,34.5c-20.7,0-35.1-14.2-35.1-34.5c0-20.4,14.4-34.7,35.1-34.7
		C5083.1-623.8,5097.5-609.6,5097.5-589.1z M5079.4-589.1c0-10.8-6.9-18.2-16.8-18.2c-10.1,0-17,7.5-17,18.2
		c0,10.6,6.9,18.1,17,18.1C5072.5-571,5079.4-578.5,5079.4-589.1z"/>
	<path class="st14" d="M5151.8-613.6L5151.8-613.6c0,4-2.8,7.5-6.8,8.3c-6.9,1.4-12.2,4.3-16.6,9.1v30.9c0,5-4.1,9-9,9l0,0
		c-5,0-9-4-9-9v-47.4c0-5.2,4.2-9.4,9.4-9.4h8.6v7.6c3.5-3.3,7.6-5.8,12.4-7.2C5146.2-623.4,5151.8-619.3,5151.8-613.6z"/>
	<path class="st14" d="M5273.6-592.9v27.6c0,5-4,9-9,9l0,0c-5,0-9-4-9-9v-27.6c0-10.2-5.4-14.5-13.4-14.5c-5,0-10.1,1.7-14.4,6.9
		c0.3,2.1,0.4,4.1,0.4,6.5v28.7c0,5-4,9-9,9l0,0c-5,0-9-4-9-9V-594c0-10.1-5.4-13.4-12.3-13.4c-5.7,0-10.8,2.2-15.1,7.7v34.3
		c0,5-4,9-9,9l0,0c-5,0-9-4-9-9v-48.8c0-4.5,3.6-8.1,8.1-8.1h10v4.4c4.4-3.7,9.5-6.1,17.4-6.1c8.7,0,16,2.8,21,8.3
		c6.5-5.5,13.3-8.3,22.2-8.3C5261.1-623.8,5273.6-612.7,5273.6-592.9z"/>
	<path class="st14" d="M4909.4-631.9L4909.4-631.9c0-2.5-2-4.5-4.5-4.5h-19.7v9h19.7C4907.4-627.4,4909.4-629.4,4909.4-631.9z"/>
	<path class="st14" d="M4910.1-566.6c-3.5,1.2-7.5,2.2-11,2.2c-9.1,0-13.8-4.6-13.8-15.6v-30.8v-0.5v-9v-1.9v-16.5
		c0-2.9-2.3-5.2-5.2-5.2l0,0c-2.9,0-5.2,2.3-5.2,5.2v18.4v9v31.3c0,16.7,7.6,25.4,23.3,25.4c2.2,0,4.5-0.2,7-0.6
		c3.6-0.7,6.1-4.1,5.5-7.8L4910.1-566.6z"/>
</g>
<path class="st15" d="M254.5,2823.3l-43.9-25.4c-11.4-6.6-25.4-6.6-36.7,0l-43.9,25.4c-11.4,6.6-18.4,18.7-18.4,31.8v50.7
	c0,13.1,7,25.2,18.4,31.8l43.9,25.4c11.4,6.6,25.4,6.6,36.7,0l43.9-25.4c11.4-6.6,18.4-18.7,18.4-31.8v-50.7
	C272.8,2842,265.8,2829.9,254.5,2823.3z M165.8,2862c0,1,0,1.8,0,2.5c0,17.1-0.1,34.1-0.1,51.2c0,3.6,0.1,7.3,0,10.9
	c-0.1,4.3-3.3,6.4-7.2,4.8c-2.1-0.9-2.4-3-2.4-4.9c-0.1-6.1,0-12.1,0-18.2c0-16.3,0-32.5-0.1-48.8c0-1,0-2,0.1-2.9
	c0.3-2.4,2.1-4,4.5-4c9.7,0,19.5,0,29.2,0c1.2,0,2.2,0,3.2-1.1c2.4-2.7,6.9-2.4,9-1.4c3.2,1.6,4.9,4.7,4.6,8c-0.4,3.4-2.7,6.1-6.2,7
	c-3,0.8-5.5-0.4-7.7-2.3c-0.4-0.3-0.9-0.7-1.4-0.7C182.9,2862,174.6,2862,165.8,2862z M230.6,2926.5c-5.3,3.9-11.2,5.4-17.7,5.4
	c-9.3,0-18.6,0.2-28,0.1c-1.2,0-2.5-0.5-3.5-1.1c-1.9-1.3-2.4-3-1.7-5.1c0.6-2,2.1-3.2,4.4-3.3c5.2-0.1,10.4-0.1,15.6-0.1
	c5.1,0,10.1,0,15.2,0c9.3-0.1,17.3-8.2,17.8-17.5c0.5-9.5-6.5-17.5-15.7-19.4c-0.4-0.1-0.8-0.1-1.2-0.1c-8.6,0-17.3,0-25.9,0
	c-0.2,0-0.4,0-0.9,0.1c0,1.9,0,3.9,0,5.8c0,2.1,0.1,4.3,0,6.4c0,1,0.3,1.5,1.4,1.5c5.2,0,10.4,0,15.7-0.1c0.8,0,1.6-0.5,2.2-1
	c3.7-3.2,7.2-2.6,9.8-0.8c3.6,2.4,4.5,6.6,2.7,10.4c-2,4.3-8.5,5.6-12,2.4c-1.1-1-2.2-1.4-3.7-1.4c-7,0.1-13.9,0-20.9,0
	c-3.1,0-4.8-1.7-4.8-4.8c0-7.7,0-15.4,0-23.2c0-3.2,1.1-4.6,4.4-4.8c5.1-0.3,10.1-0.2,15.2-0.2c11.4,0,20-10,18.3-21.3
	c-1.2-7.9-7.4-13.4-14.3-15.2c-1.6-0.4-3.4-0.4-5.2-0.4c-12.1,0-24.2-0.2-36.3,0c-2.8,0-5.6-2.4-5.5-5c0-2.7,2.5-5,5.6-5
	c7.4,0,14.8,0,22.1,0c5.1,0,10.1-0.1,15.2,0c12.7,0.2,23.8,8.2,27.4,20.9c2.5,8.9,0.7,17.2-4.9,24.6c-0.4,0.5-0.7,1-1.3,1.8
	c1.8,0.6,3.5,1.1,5,1.8c9,3.9,14.7,10.7,16.6,20.2C244,2909.2,240.1,2919.5,230.6,2926.5z"/>
<path class="st15" d="M29.7,2961.2h-48.2c-31.7,0-57.5-25.7-57.5-57.5v-48.2c0-31.7,25.7-57.5,57.5-57.5h48.2
	c31.7,0,57.5,25.7,57.5,57.5v48.2C87.2,2935.4,61.4,2961.2,29.7,2961.2z"/>
<g>
	<path class="st14" d="M36.5,2874.7c2.1,0.7,4,1.3,5.8,2c10.2,4.5,16.8,12.2,19,23.1c2.6,12.6-2,24.4-12.8,32.3
		c-6,4.4-12.8,6.2-20.2,6.2c-10.6,0-21.3,0.2-31.9,0.2c-1.3,0-2.9-0.5-4-1.3c-2.2-1.5-2.7-3.5-1.9-5.8c0.7-2.3,2.4-3.7,5-3.7
		c5.9-0.1,11.8-0.1,17.8-0.1c5.8,0,11.6,0,17.4,0c10.6-0.1,19.8-9.4,20.3-20c0.6-10.8-7.4-20-17.9-22.2c-0.4-0.1-0.9-0.1-1.4-0.1
		c-9.9,0-19.7,0-29.6,0c-0.3,0-0.5,0-1.1,0.1c0,2.2,0,4.4,0,6.6c0,2.4,0.1,4.9,0,7.3c0,1.2,0.4,1.7,1.6,1.7c6,0,11.9,0,17.9-0.1
		c0.9,0,1.9-0.6,2.6-1.2c4.2-3.6,8.2-3,11.2-0.9c4.2,2.8,5.1,7.5,3.1,11.9c-2.3,4.9-9.7,6.4-13.6,2.8c-1.3-1.2-2.5-1.6-4.2-1.6
		c-8,0.1-15.9,0-23.9,0c-3.5,0-5.5-2-5.5-5.5c0-8.8,0-17.6,0-26.4c0-3.7,1.3-5.3,5-5.5c5.8-0.3,11.6-0.2,17.4-0.2
		c13,0,22.8-11.4,20.9-24.3c-1.3-9-8.5-15.4-16.4-17.4C15,2832,13,2832,11,2832c-13.8-0.1-27.6-0.2-41.5,0c-3.1,0-6.3-2.7-6.3-5.7
		c0-3.1,2.9-5.7,6.4-5.7c8.4,0,16.8,0,25.3,0c5.8,0,11.6-0.1,17.4,0c14.5,0.2,27.2,9.4,31.3,23.8c2.9,10.1,0.8,19.6-5.6,28.1
		C37.6,2873.2,37.2,2873.8,36.5,2874.7z"/>
	<path class="st14" d="M-25.5,2858.5c0,1.1,0,2,0,2.9c0,19.5-0.1,39-0.1,58.5c0,4.1,0.1,8.3,0,12.4c-0.1,4.9-3.7,7.3-8.2,5.5
		c-2.4-1-2.7-3.4-2.8-5.6c-0.1-6.9,0-13.8,0-20.7c0-18.6-0.1-37.1-0.1-55.7c0-1.1,0-2.2,0.2-3.3c0.3-2.8,2.4-4.6,5.2-4.6
		c11.1,0,22.2,0,33.4,0c1.4,0,2.5,0,3.6-1.3c2.7-3.1,7.9-2.8,10.2-1.6c3.6,1.9,5.6,5.4,5.2,9.1c-0.4,3.9-3.1,7-7.1,8
		c-3.5,0.9-6.3-0.4-8.8-2.6c-0.5-0.4-1.1-0.8-1.6-0.8C-6,2858.5-15.5,2858.5-25.5,2858.5z"/>
</g>
<g>
	<g>
		<path class="st13" d="M4803.1,2912c0,15.3-13.4,25.7-34.2,25.7h-32.9c-3.9,0-7.1-3.2-7.1-7.1v-78.4c0-4.6,3.7-8.4,8.4-8.4h30.6
			c18.9,0,30.5,9.3,30.5,23.8c0,10.4-5.8,18.5-15.9,21.5C4796.2,2891.4,4803.1,2900.4,4803.1,2912z M4739.7,2853.4v32.2h25.5
			c14.5,0,22.6-6.5,22.6-16.8c0-9.4-8-15.3-21.3-15.3H4739.7z M4792.3,2910.8c0-10.2-8.8-16.2-23.6-16.2h-29v33.3h28.7
			C4783.4,2928,4792.3,2920.7,4792.3,2910.8z"/>
		<path class="st13" d="M4822.4,2849.5c0-4,3-7,7-7c4,0,7.2,3,7.2,7c0,3.9-3.2,6.9-7.2,6.9
			C4825.4,2856.4,4822.4,2853.4,4822.4,2849.5z"/>
		<path class="st13" d="M4834.8,2878.8v53.6c0,2.9-2.3,5.2-5.2,5.2l0,0c-2.9,0-5.2-2.3-5.2-5.2v-53.6c0-2.9,2.3-5.2,5.2-5.2l0,0
			C4832.5,2873.6,4834.8,2875.9,4834.8,2878.8z"/>
		<path class="st13" d="M4957.1,2861.1v24.2h34.4c4.8,0,8.7,3.9,8.7,8.7l0,0c0,4.8-3.9,8.7-8.7,8.7h-34.4v25.5
			c0,5.2-4.2,9.4-9.4,9.4l0,0c-5.2,0-9.4-4.2-9.4-9.4v-78.4c0-3.4,2.8-6.2,6.2-6.2h53.2c4.8,0,8.7,3.9,8.7,8.7l0,0
			c0,4.8-3.9,8.7-8.7,8.7H4957.1z"/>
		<path class="st13" d="M5087.7,2904.8c0,20.3-14.4,34.5-34.9,34.5c-20.7,0-35.1-14.2-35.1-34.5c0-20.4,14.4-34.7,35.1-34.7
			C5073.3,2870.1,5087.7,2884.3,5087.7,2904.8z M5069.6,2904.8c0-10.8-6.9-18.2-16.8-18.2c-10.1,0-17,7.5-17,18.2
			c0,10.6,6.9,18.1,17,18.1C5062.7,2922.9,5069.6,2915.4,5069.6,2904.8z"/>
		<path class="st13" d="M5141.9,2880.3L5141.9,2880.3c0,4-2.8,7.5-6.8,8.3c-6.9,1.4-12.2,4.3-16.6,9.1v30.9c0,5-4,9-9,9l0,0
			c-5,0-9-4-9-9v-47.4c0-5.2,4.2-9.4,9.4-9.4h8.6v7.6c3.5-3.3,7.6-5.8,12.4-7.2C5136.4,2870.5,5141.9,2874.6,5141.9,2880.3z"/>
		<path class="st13" d="M5263.7,2901v27.6c0,5-4,9-9,9l0,0c-5,0-9-4-9-9V2901c0-10.2-5.4-14.5-13.4-14.5c-5,0-10.1,1.7-14.4,6.9
			c0.3,2.1,0.4,4.1,0.4,6.5v28.7c0,5-4,9-9,9l0,0c-5,0-9-4-9-9v-28.7c0-10.1-5.4-13.4-12.3-13.4c-5.7,0-10.8,2.2-15.1,7.7v34.3
			c0,5-4,9-9,9l0,0c-5,0-9-4-9-9v-48.8c0-4.5,3.6-8.1,8.1-8.1h10v4.4c4.4-3.7,9.5-6.1,17.4-6.1c8.7,0,16,2.8,21,8.3
			c6.5-5.5,13.3-8.3,22.2-8.3C5251.3,2870.1,5263.7,2881.2,5263.7,2901z"/>
		<path class="st13" d="M4899.6,2862L4899.6,2862c0-2.5-2-4.5-4.5-4.5h-19.7v9h19.7C4897.6,2866.5,4899.6,2864.5,4899.6,2862z"/>
		<path class="st13" d="M4900.3,2927.3c-3.5,1.2-7.5,2.2-11,2.2c-9.1,0-13.8-4.6-13.8-15.6v-30.8v-0.5v-9v-1.9v-16.5
			c0-2.9-2.3-5.2-5.2-5.2l0,0c-2.9,0-5.2,2.3-5.2,5.2v18.4v9v31.3c0,16.7,7.6,25.4,23.3,25.4c2.2,0,4.5-0.2,7-0.6
			c3.6-0.7,6.1-4.1,5.5-7.8L4900.3,2927.3z"/>
	</g>
	<g>
		<path class="st13" d="M5043.5,2782.4H4949c-72.1,0-130.6-58.5-130.6-130.6v-94.5c0-72.1,58.5-130.6,130.6-130.6h94.5
			c72.1,0,130.6,58.5,130.6,130.6v94.5C5174.1,2724,5115.6,2782.4,5043.5,2782.4z"/>
		<g>
			<path class="st14" d="M5057.5,2595.2c4,1.4,7.6,2.4,11,3.9c19.6,8.6,32.2,23.4,36.4,44.2c4.9,24.1-3.8,46.6-24.6,61.9
				c-11.5,8.5-24.5,11.9-38.6,11.8c-20.4-0.1-40.8,0.4-61.1,0.3c-2.6,0-5.5-1-7.6-2.5c-4.3-2.9-5.2-6.6-3.7-11.2
				c1.4-4.3,4.7-7.1,9.6-7.2c11.3-0.2,22.7-0.1,34-0.2c11.1,0,22.2,0,33.3-0.1c20.3-0.2,37.8-17.9,38.9-38.2
				c1.1-20.7-14.2-38.2-34.3-42.5c-0.9-0.2-1.8-0.2-2.6-0.2c-18.9,0-37.8,0-56.7,0c-0.5,0-1,0.1-2.1,0.2c0,4.3,0,8.5,0,12.7
				c0,4.7,0.1,9.3,0,14c0,2.2,0.7,3.2,3,3.2c11.4-0.1,22.8,0,34.3-0.2c1.7,0,3.6-1.1,4.9-2.3c8.1-7,15.6-5.7,21.5-1.7
				c7.9,5.3,9.9,14.4,5.9,22.7c-4.5,9.3-18.5,12.3-26.1,5.3c-2.4-2.2-4.8-3.1-8-3.1c-15.2,0.1-30.5,0.1-45.7,0
				c-6.7,0-10.6-3.8-10.6-10.5c-0.1-16.9-0.1-33.8,0-50.6c0.1-7,2.5-10.1,9.6-10.5c11.1-0.6,22.2-0.4,33.2-0.4
				c24.9-0.1,43.7-21.9,40-46.5c-2.6-17.3-16.2-29.4-31.3-33.3c-3.6-0.9-7.5-0.9-11.3-0.9c-26.5-0.1-52.9-0.3-79.4,0
				c-6,0.1-12.1-5.2-12.1-10.9c0.1-5.9,5.5-10.8,12.2-10.8c16.1,0,32.3,0.1,48.4,0.1c11.1,0,22.2-0.2,33.3,0
				c27.8,0.5,52,17.9,60,45.6c5.6,19.4,1.6,37.6-10.7,53.7C5059.5,2592.3,5058.8,2593.4,5057.5,2595.2z"/>
			<path class="st14" d="M4938.9,2564.2c0,2.1,0,3.8,0,5.5c-0.1,37.3-0.1,74.6-0.2,111.9c0,7.9,0.1,15.9,0,23.8
				c-0.2,9.4-7.1,14-15.7,10.5c-4.7-1.9-5.2-6.5-5.3-10.8c-0.2-13.2-0.1-26.5-0.1-39.7c0-35.5-0.1-71.1-0.1-106.6
				c0-2.1,0-4.3,0.3-6.4c0.6-5.3,4.6-8.8,9.9-8.9c21.3,0,42.6,0,63.9-0.1c2.6,0,4.8-0.1,6.9-2.5c5.2-5.9,15.2-5.3,19.6-3
				c7,3.6,10.7,10.3,10,17.5c-0.8,7.5-6,13.4-13.6,15.4c-6.6,1.7-12-0.8-16.9-5c-0.9-0.7-2-1.6-3.1-1.6
				C4976.2,2564.1,4957.9,2564.2,4938.9,2564.2z"/>
		</g>
	</g>
</g>
<g>
	<g>
		<linearGradient id="SVGID_1_" gradientUnits="userSpaceOnUse" x1="452.9002" y1="1291.5927" x2="768.9572" y2="975.5357">
			<stop  offset="4.049120e-07" style="stop-color:#0F2939"/>
			<stop  offset="1" style="stop-color:#0F1923"/>
		</linearGradient>
		<path class="st18" d="M664.9,1334.7H557c-81.3,0-147.2-65.9-147.2-147.2v-107.9c0-81.3,65.9-147.2,147.2-147.2h107.9
			c81.3,0,147.2,65.9,147.2,147.2v107.9C812.1,1268.8,746.2,1334.7,664.9,1334.7z"/>
		<linearGradient id="SVGID_2_" gradientUnits="userSpaceOnUse" x1="472.3407" y1="1273.1522" x2="751.5167" y2="993.9762">
			<stop  offset="0" style="stop-color:#0F1923"/>
			<stop  offset="1" style="stop-color:#0F2939"/>
		</linearGradient>
		<path class="st19" d="M659.2,1311.4h-94.5c-72.1,0-130.6-58.5-130.6-130.6v-94.5c0-72.1,58.5-130.6,130.6-130.6h94.5
			c72.1,0,130.6,58.5,130.6,130.6v94.5C789.8,1252.9,731.3,1311.4,659.2,1311.4z"/>
		<g>
			<path class="st14" d="M667.9,1125c3.7,1.3,6.9,2.2,10,3.5c17.8,7.8,29.1,21.2,32.9,40.1c4.4,21.9-3.4,42.2-22.3,56.1
				c-10.4,7.7-22.2,10.7-35,10.7c-18.5-0.1-36.9,0.3-55.4,0.3c-2.3,0-5-0.9-6.9-2.3c-3.9-2.6-4.7-6-3.4-10.1
				c1.3-3.9,4.2-6.4,8.7-6.5c10.3-0.2,20.5-0.1,30.8-0.2c10,0,20.1,0,30.1-0.1c18.4-0.2,34.3-16.2,35.3-34.6
				c1-18.7-12.8-34.6-31.1-38.5c-0.8-0.2-1.6-0.2-2.4-0.2c-17.1,0-34.2,0-51.4,0c-0.4,0-0.9,0.1-1.9,0.2c0,3.9,0,7.7,0,11.5
				c0,4.2,0.1,8.4,0,12.7c0,2,0.6,2.9,2.7,2.9c10.3-0.1,20.7,0,31-0.2c1.5,0,3.2-1,4.4-2c7.3-6.3,14.2-5.1,19.5-1.6
				c7.2,4.8,8.9,13,5.3,20.6c-4.1,8.5-16.8,11.1-23.7,4.8c-2.2-2-4.4-2.8-7.3-2.8c-13.8,0.1-27.6,0-41.4,0c-6.1,0-9.6-3.4-9.6-9.5
				c-0.1-15.3-0.1-30.6,0-45.9c0-6.4,2.3-9.2,8.7-9.5c10-0.5,20.1-0.4,30.1-0.4c22.6,0,39.5-19.8,36.2-42.1
				c-2.3-15.6-14.7-26.6-28.4-30.2c-3.3-0.8-6.8-0.8-10.2-0.8c-24-0.1-47.9-0.3-71.9,0c-5.5,0.1-11-4.7-10.9-9.8
				c0.1-5.4,5-9.8,11.1-9.8c14.6,0,29.2,0.1,43.8,0.1c10,0,20.1-0.2,30.1,0c25.2,0.4,47.1,16.2,54.3,41.3c5,17.6,1.4,34-9.7,48.7
				C669.7,1122.4,669,1123.5,667.9,1125z"/>
			<path class="st14" d="M560.4,1096.9c0,1.9,0,3.5,0,5c-0.1,33.8-0.1,67.6-0.2,101.4c0,7.2,0.1,14.4,0,21.6
				c-0.2,8.5-6.4,12.7-14.2,9.5c-4.2-1.7-4.7-5.9-4.8-9.8c-0.1-12-0.1-24-0.1-36c0-32.2-0.1-64.4-0.1-96.6c0-1.9,0-3.9,0.3-5.8
				c0.6-4.8,4.2-8,9-8c19.3,0,38.6,0,57.9-0.1c2.3,0,4.3-0.1,6.3-2.3c4.7-5.4,13.8-4.8,17.7-2.7c6.3,3.2,9.7,9.3,9,15.8
				c-0.7,6.8-5.4,12.1-12.3,13.9c-6,1.6-10.9-0.7-15.3-4.5c-0.8-0.7-1.8-1.5-2.8-1.5C594.2,1096.9,577.7,1096.9,560.4,1096.9z"/>
		</g>
	</g>
</g>
<g>
	<linearGradient id="SVGID_3_" gradientUnits="userSpaceOnUse" x1="38.9236" y1="316.7301" x2="316.7301" y2="38.9236">
		<stop  offset="0" style="stop-color:#0F1738"/>
		<stop  offset="1" style="stop-color:#1D3A4B"/>
	</linearGradient>
	<path class="st20" d="M222.8,355.7h-89.9C59.5,355.7,0,296.2,0,222.8l0-89.9C0,59.5,59.5,0,132.9,0l89.9,0
		c73.4,0,132.9,59.5,132.9,132.9v89.9C355.7,296.2,296.2,355.7,222.8,355.7z"/>
	<g>
		<linearGradient id="SVGID_4_" gradientUnits="userSpaceOnUse" x1="117.8295" y1="238.6896" x2="247.8967" y2="108.6224">
			<stop  offset="0" style="stop-color:#EF3A56"/>
			<stop  offset="1" style="stop-color:#F37161"/>
		</linearGradient>
		<path class="st21" d="M233.8,169.3c3.7,1.3,6.9,2.2,10,3.5c17.8,7.8,29.1,21.2,32.9,40.1c4.4,21.9-3.4,42.2-22.3,56.1
			c-10.4,7.7-22.2,10.7-35,10.7c-18.5-0.1-36.9,0.3-55.4,0.3c-2.3,0-5-0.9-6.9-2.3c-3.9-2.6-4.7-6-3.4-10.1c1.3-3.9,4.2-6.4,8.7-6.5
			c10.3-0.2,20.5-0.1,30.8-0.2c10,0,20.1,0,30.1-0.1c18.4-0.2,34.3-16.2,35.3-34.6c1-18.7-12.8-34.6-31.1-38.5
			c-0.8-0.2-1.6-0.2-2.4-0.2c-17.1,0-34.2,0-51.4,0c-0.4,0-0.9,0.1-1.9,0.2c0,3.9,0,7.7,0,11.5c0,4.2,0.1,8.4,0,12.7
			c0,2,0.6,2.9,2.7,2.9c10.3-0.1,20.7,0,31-0.2c1.5,0,3.2-1,4.4-2c7.3-6.3,14.2-5.1,19.5-1.6c7.2,4.8,8.9,13,5.3,20.6
			c-4.1,8.5-16.8,11.1-23.7,4.8c-2.2-2-4.4-2.8-7.3-2.8c-13.8,0.1-27.6,0-41.4,0c-6.1,0-9.6-3.4-9.6-9.5c-0.1-15.3-0.1-30.6,0-45.9
			c0-6.4,2.3-9.2,8.7-9.5c10-0.5,20.1-0.4,30.1-0.4c22.6,0,39.5-19.8,36.2-42.1c-2.3-15.6-14.7-26.6-28.4-30.2
			c-3.3-0.8-6.8-0.8-10.2-0.8c-24-0.1-47.9-0.3-71.9,0c-5.5,0.1-11-4.7-10.9-9.8c0.1-5.4,5-9.8,11.1-9.8c14.6,0,29.2,0.1,43.8,0.1
			c10,0,20.1-0.2,30.1,0C216.9,76.2,238.8,92,246,117c5,17.6,1.4,34-9.7,48.7C235.6,166.7,234.9,167.7,233.8,169.3z"/>
		<linearGradient id="SVGID_5_" gradientUnits="userSpaceOnUse" x1="74.9428" y1="242.6051" x2="199.6714" y2="117.8764">
			<stop  offset="0" style="stop-color:#EF3A56"/>
			<stop  offset="1" style="stop-color:#F37161"/>
		</linearGradient>
		<path class="st22" d="M126.3,141.2c0,1.9,0,3.5,0,5c-0.1,33.8-0.1,67.6-0.2,101.4c0,7.2,0.1,14.4,0,21.6
			c-0.2,8.5-6.4,12.7-14.2,9.5c-4.2-1.7-4.7-5.9-4.8-9.8c-0.1-12-0.1-24-0.1-36c0-32.2-0.1-64.4-0.1-96.6c0-1.9,0-3.9,0.3-5.8
			c0.6-4.8,4.2-8,9-8c19.3,0,38.6,0,57.9-0.1c2.3,0,4.3-0.1,6.3-2.3c4.7-5.4,13.8-4.8,17.7-2.7c6.3,3.2,9.7,9.3,9,15.8
			c-0.7,6.8-5.4,12.1-12.3,13.9c-6,1.6-10.9-0.7-15.3-4.5c-0.8-0.7-1.8-1.5-2.8-1.5C160.1,141.2,143.5,141.2,126.3,141.2z"/>
	</g>
</g>
<g>
	
		<image style="overflow:visible;opacity:0.12;" width="1838" height="1838" xlink:href="35AF0289.png"  transform="matrix(0.24 0 0 0.24 1672.2595 910.16)">
	</image>
	<g>
		<g>
			<g>
				<g>
					<linearGradient id="SVGID_6_" gradientUnits="userSpaceOnUse" x1="1973.334" y1="1282.531" x2="1778.1829" y2="944.5193">
						<stop  offset="0" style="stop-color:#DBDDDF"/>
						<stop  offset="1" style="stop-color:#FFFFFF"/>
					</linearGradient>
					<path class="st23" d="M1923,1291.4h-94.5c-72.1,0-130.6-58.5-130.6-130.6v-94.5c0-72.1,58.5-130.6,130.6-130.6h94.5
						c72.1,0,130.6,58.5,130.6,130.6v94.5C2053.6,1232.9,1995.1,1291.4,1923,1291.4z"/>
				</g>
				<g>
					<path class="st14" d="M1931.7,1105c3.7,1.3,6.9,2.2,10,3.5c17.8,7.8,29.1,21.2,32.9,40.1c4.4,21.9-3.4,42.2-22.3,56.1
						c-10.4,7.7-22.2,10.7-35,10.7c-18.5-0.1-36.9,0.3-55.4,0.3c-2.3,0-5-0.9-6.9-2.3c-3.9-2.6-4.7-6-3.4-10.1
						c1.3-3.9,4.2-6.4,8.7-6.5c10.3-0.2,20.5-0.1,30.8-0.2c10,0,20.1,0,30.1-0.1c18.4-0.2,34.3-16.2,35.3-34.6
						c1-18.7-12.8-34.6-31.1-38.5c-0.8-0.2-1.6-0.2-2.4-0.2c-17.1,0-34.2,0-51.4,0c-0.4,0-0.9,0.1-1.9,0.2c0,3.9,0,7.7,0,11.5
						c0,4.2,0.1,8.4,0,12.7c0,2,0.6,2.9,2.7,2.9c10.3-0.1,20.7,0,31-0.2c1.5,0,3.2-1,4.4-2c7.3-6.3,14.2-5.1,19.5-1.6
						c7.2,4.8,8.9,13,5.3,20.6c-4.1,8.5-16.8,11.1-23.7,4.8c-2.2-2-4.4-2.8-7.3-2.8c-13.8,0.1-27.6,0-41.4,0c-6.1,0-9.6-3.4-9.6-9.5
						c-0.1-15.3-0.1-30.6,0-45.9c0-6.4,2.3-9.2,8.7-9.5c10-0.5,20.1-0.4,30.1-0.4c22.6,0,39.5-19.8,36.2-42.1
						c-2.3-15.6-14.7-26.6-28.4-30.2c-3.3-0.8-6.8-0.8-10.2-0.8c-24-0.1-47.9-0.3-71.9,0c-5.5,0.1-11-4.7-10.9-9.8
						c0.1-5.4,5-9.8,11.1-9.8c14.6,0,29.2,0.1,43.8,0.1c10,0,20.1-0.2,30.1,0c25.2,0.4,47.1,16.2,54.3,41.3c5,17.6,1.4,34-9.7,48.7
						C1933.5,1102.4,1932.8,1103.4,1931.7,1105z"/>
					<path class="st14" d="M1824.2,1076.9c0,1.9,0,3.5,0,5c-0.1,33.8-0.1,67.6-0.2,101.4c0,7.2,0.1,14.4,0,21.6
						c-0.2,8.5-6.4,12.7-14.2,9.5c-4.2-1.7-4.7-5.9-4.8-9.8c-0.1-12-0.1-24-0.1-36c0-32.2-0.1-64.4-0.1-96.6c0-1.9,0-3.9,0.3-5.8
						c0.6-4.8,4.2-8,9-8c19.3,0,38.6,0,57.9-0.1c2.3,0,4.3-0.1,6.3-2.3c4.7-5.4,13.8-4.8,17.7-2.7c6.3,3.2,9.7,9.3,9,15.8
						c-0.7,6.8-5.4,12.1-12.3,13.9c-6,1.6-10.9-0.7-15.3-4.5c-0.8-0.7-1.8-1.5-2.8-1.5C1858,1076.9,1841.5,1076.9,1824.2,1076.9z"/>
				</g>
			</g>
		</g>
	</g>
</g>
<path class="st15" d="M36.7,2562.4h-48.2c-31.7,0-57.5,25.7-57.5,57.5v48.2c0,31.7,25.7,57.5,57.5,57.5h48.2
	c31.7,0,57.5-25.7,57.5-57.5v-48.2C94.2,2588.1,68.4,2562.4,36.7,2562.4z M-18.5,2622.8c0,1.1,0,2,0,2.9c0,19.5-0.1,39-0.1,58.5
	c0,4.1,0.1,8.3,0,12.4c-0.1,4.9-3.7,7.3-8.2,5.5c-2.4-1-2.7-3.4-2.8-5.6c-0.1-6.9,0-13.8,0-20.7c0-18.6-0.1-37.1-0.1-55.7
	c0-1.1,0-2.2,0.2-3.3c0.3-2.8,2.4-4.6,5.2-4.6c11.1,0,22.2,0,33.4,0c1.4,0,2.5,0,3.6-1.3c2.7-3.1,7.9-2.8,10.2-1.6
	c3.6,1.9,5.6,5.4,5.2,9.1c-0.4,3.9-3.1,7-7.1,8c-3.5,0.9-6.3-0.4-8.8-2.6c-0.5-0.4-1.1-0.8-1.6-0.8C1,2622.8-8.5,2622.8-18.5,2622.8
	z M55.4,2696.5c-6,4.4-12.8,6.2-20.2,6.2c-10.6,0-21.3,0.2-31.9,0.2c-1.3,0-2.9-0.5-4-1.3c-2.2-1.5-2.7-3.5-1.9-5.8
	c0.7-2.3,2.4-3.7,5-3.7c5.9-0.1,11.8-0.1,17.8-0.1c5.8,0,11.6,0,17.4,0c10.6-0.1,19.8-9.4,20.3-20c0.6-10.8-7.4-20-17.9-22.2
	c-0.4-0.1-0.9-0.1-1.4-0.1c-9.9,0-19.7,0-29.6,0c-0.3,0-0.5,0-1.1,0.1c0,2.2,0,4.4,0,6.6c0,2.4,0.1,4.9,0,7.3c0,1.2,0.4,1.7,1.6,1.7
	c6,0,11.9,0,17.9-0.1c0.9,0,1.9-0.6,2.6-1.2c4.2-3.6,8.2-3,11.2-0.9c4.2,2.8,5.1,7.5,3.1,11.9c-2.3,4.9-9.7,6.4-13.6,2.8
	c-1.3-1.2-2.5-1.6-4.2-1.6c-8,0.1-15.9,0-23.9,0c-3.5,0-5.5-2-5.5-5.5c0-8.8,0-17.6,0-26.4c0-3.7,1.3-5.3,5-5.5
	c5.8-0.3,11.6-0.2,17.4-0.2c13,0,22.8-11.4,20.9-24.3c-1.3-9-8.5-15.4-16.4-17.4c-1.9-0.5-3.9-0.5-5.9-0.5
	c-13.8-0.1-27.6-0.2-41.5,0c-3.1,0-6.3-2.7-6.3-5.7c0-3.1,2.9-5.7,6.4-5.7c8.4,0,16.8,0,25.3,0c5.8,0,11.6-0.1,17.4,0
	c14.5,0.2,27.2,9.4,31.3,23.8c2.9,10.1,0.8,19.6-5.6,28.1c-0.4,0.6-0.8,1.2-1.5,2.1c2.1,0.7,4,1.3,5.8,2c10.2,4.5,16.8,12.2,19,23.1
	C70.8,2676.8,66.3,2688.5,55.4,2696.5z"/>
</svg>
